SplineFontDB: 3.2
FontName: Cyrillibesh-BETA
FullName: Cyrillibesh BETA
FamilyName: Cyrillibesh
Weight: Regular
Copyright: CC-0 Public domain
UComments: "2020-5-24: Created with FontForge (http://fontforge.org)"
Version: 001.002
ItalicAngle: 0
UnderlinePosition: -100
UnderlineWidth: 50
Ascent: 800
Descent: 200
InvalidEm: 0
LayerCount: 2
Layer: 0 0 "Back" 1
Layer: 1 0 "Fore" 0
XUID: [1021 178 1911899458 41]
FSType: 0
OS2Version: 0
OS2_WeightWidthSlopeOnly: 0
OS2_UseTypoMetrics: 1
CreationTime: 1590366859
ModificationTime: 1590534335
PfmFamily: 17
TTFWeight: 400
TTFWidth: 5
LineGap: 90
VLineGap: 0
OS2TypoAscent: 0
OS2TypoAOffset: 1
OS2TypoDescent: 0
OS2TypoDOffset: 1
OS2TypoLinegap: 90
OS2WinAscent: 0
OS2WinAOffset: 1
OS2WinDescent: 0
OS2WinDOffset: 1
HheadAscent: 0
HheadAOffset: 1
HheadDescent: 0
HheadDOffset: 1
OS2Vendor: 'PfEd'
OS2CodePages: 00000000.00000000
MarkAttachClasses: 1
DEI: 91125
LangName: 1049 "" "" "" "" "" "" "" "" "" "" "" "" "" "" "" "" "" "" "" "+BC0ERQAA, +BEcEQwQ2BDAEOgAA, +BD4EMQRJBDgEOQAA +BEEESgRRBDwA +BEYENQQ9 +BEgEOwRPBD8A (+BE4ERARCBEwA) - +BDIENARABEsENwQz!"
LangName: 1033 "" "" "" "Cyrillibesh:AurekFonts:2020:v1.002" "" "" "" "" "" "Ender Smith (AurekFonts)"
Encoding: ISO8859-1
UnicodeInterp: none
NameList: AGL For New Fonts
DisplaySize: -72
AntiAlias: 1
FitToEm: 0
WinInfo: 100 25 10
BeginPrivate: 0
EndPrivate
TeXData: 1 0 0 529530 264765 176510 1015022 1048576 176510 783286 444596 497025 792723 393216 433062 380633 303038 157286 324010 404750 52429 2506097 1059062 262144
BeginChars: 327 159

StartChar: exclam
Encoding: 33 33 3
Width: 479
Flags: W
VStem: 106 298
LayerCount: 2
Fore
SplineSet
404 368 m 1
 106 72 l 1
 106 282 l 1
 404 578 l 1
 404 368 l 1
402 712 m 1
 104 416 l 1
 104 626 l 1
 402 922 l 1
 402 712 l 1
EndSplineSet
Validated: 1
EndChar

StartChar: quotedbl
Encoding: 34 34 4
Width: 992
Flags: W
HStem: 956 20G<22 324.489 648 872>
VStem: 648 224<624 976>
LayerCount: 2
Fore
SplineSet
872 976 m 1
 872 473 l 1
 519 473 l 1
 22 976 l 1
 305 976 l 1
 648 624 l 1
 648 976 l 1
 872 976 l 1
EndSplineSet
Validated: 1
EndChar

StartChar: dollar
Encoding: 36 36 5
Width: 1122
Flags: W
HStem: -1 21G<221 518.22> -1 21G<221 518.22> 560 213<45 156 268 380 492 651> 948 20G<156 268 380 492> 948 20G<156 268 380 492>
VStem: 156 112<365 560 773 968> 380 112<365 560 773 968>
LayerCount: 2
Fore
SplineSet
268 968 m 1xb6
 268 773 l 1
 380 773 l 1
 380 968 l 1
 492 968 l 1
 492 773 l 1
 1092 773 l 1
 503 -1 l 1
 221 -1 l 1
 651 560 l 1
 492 560 l 1
 492 365 l 1
 380 365 l 1
 380 560 l 1
 268 560 l 1
 268 365 l 1
 156 365 l 1
 156 560 l 1
 45 560 l 1
 45 773 l 1
 156 773 l 1
 156 968 l 1
 268 968 l 1xb6
EndSplineSet
Validated: 1
EndChar

StartChar: ampersand
Encoding: 38 38 6
Width: 1420
Flags: W
HStem: -1 206<264 1178> 390 204<597 1178> 764 204<264 1178>
VStem: 41 223<205 393 563 764> 1178 204<205 390 594 764>
LayerCount: 2
Fore
SplineSet
1382 968 m 1
 1382 -1 l 1
 102 -1 l 1
 41 60 l 1
 41 393 l 1
 264 393 l 1
 264 205 l 1
 1178 205 l 1
 1178 390 l 1
 597 390 l 1
 597 594 l 1
 1178 594 l 1
 1178 764 l 1
 264 764 l 1
 264 563 l 1
 41 563 l 1
 41 918 l 1
 91 968 l 1
 1382 968 l 1
EndSplineSet
Validated: 1
EndChar

StartChar: quotesingle
Encoding: 39 39 7
Width: 600
Flags: W
HStem: 996 89<332 392>
VStem: 110 222<598 996>
LayerCount: 2
Fore
SplineSet
392 1085 m 1
 512 996 l 1
 332 996 l 1
 332 385 l 1
 110 598 l 1
 110 1085 l 1
 392 1085 l 1
EndSplineSet
Validated: 1
EndChar

StartChar: parenleft
Encoding: 40 40 8
Width: 582
Flags: W
HStem: -1 21G<246 452> -1 21G<246 452> 378 214<60 246> 948 20G<246 452> 948 20G<246 452>
VStem: 246 206<-1 378 592 968>
LayerCount: 2
Fore
SplineSet
246 -1 m 1xb4
 246 378 l 1
 60 378 l 1
 60 592 l 1
 246 592 l 1
 246 968 l 1
 452 968 l 1
 452 -1 l 1
 246 -1 l 1xb4
EndSplineSet
Validated: 1
EndChar

StartChar: parenright
Encoding: 41 41 9
Width: 578
Flags: W
LayerCount: 2
Fore
SplineSet
298 -1 m 1
 298 378 l 1
 484 378 l 1
 484 592 l 1
 298 592 l 1
 298 968 l 1
 92 968 l 1
 92 -1 l 1
 298 -1 l 1
EndSplineSet
Validated: 9
EndChar

StartChar: plus
Encoding: 43 43 10
Width: 1416
Flags: W
HStem: 0 196<252 1148> 392 200<256 812> 756 218<256 1148>
VStem: 34 218<196 392 592 756> 1148 219<196 756>
LayerCount: 2
Fore
SplineSet
1351 13 m 1
 1326 6 l 1
 1289 0 l 1
 111 0 l 1
 71 4 l 1
 47 12 l 1
 37 32 l 1
 34 65 l 1
 34 910 l 1
 38 941 l 1
 49 960 l 1
 69 971 l 1
 111 974 l 1
 1289 974 l 1
 1332 972 l 1
 1353 964 l 1
 1362 946 l 1
 1367 910 l 1
 1367 65 l 1
 1363 30 l 1
 1351 13 l 1
1148 196 m 1
 1148 756 l 1
 256 756 l 1
 256 592 l 1
 812 592 l 1
 812 392 l 1
 252 392 l 1
 252 196 l 1
 1148 196 l 1
EndSplineSet
Validated: 1
EndChar

StartChar: comma
Encoding: 44 44 11
Width: 408
Flags: W
HStem: 0 21G<81 300> 0 21G<81 300>
VStem: 81 219<0 492>
LayerCount: 2
Fore
SplineSet
81 0 m 1xa0
 81 492 l 1
 300 492 l 1
 300 0 l 1
 81 0 l 1xa0
EndSplineSet
Validated: 1
EndChar

StartChar: hyphen
Encoding: 45 45 12
AltUni2: 002010.ffffffff.0
Width: 768
Flags: W
HStem: 769 207
LayerCount: 2
Fore
SplineSet
90 976 m 1
 90 769 l 1
 657 769 l 1
 657 976 l 1
 90 976 l 1
EndSplineSet
Validated: 9
EndChar

StartChar: period
Encoding: 46 46 13
Width: 766
Flags: W
HStem: -1 492<81 300 382 601>
VStem: 81 219<-1 491> 382 219<0 492>
LayerCount: 2
Fore
SplineSet
382 0 m 1
 382 492 l 1
 601 492 l 1
 601 0 l 1
 382 0 l 1
81 -1 m 1
 81 491 l 1
 300 491 l 1
 300 -1 l 1
 81 -1 l 1
EndSplineSet
Validated: 1
EndChar

StartChar: slash
Encoding: 47 47 14
Width: 557
Flags: W
HStem: 0 21G<110 330> 0 21G<110 330>
VStem: 110 220<0 402> 298 218<550 977>
LayerCount: 2
Fore
SplineSet
516 550 m 1x90
 330 404 l 1
 330 0 l 1
 110 0 l 1
 110 402 l 1xa0
 298 550 l 1
 298 978 l 1
 517 977 l 1
 516 550 l 1x90
EndSplineSet
Validated: 1
EndChar

StartChar: zero
Encoding: 48 48 15
Width: 662
VWidth: 1239
Flags: W
HStem: 646 276<63.9985 291.482>
VStem: 42.25 273<669.817 906.156>
LayerCount: 2
Fore
SplineSet
63.25 664 m 5
 54.25 682 48.5 697.5 46 710.5 c 4
 43.5 723.5 42.25 748.25 42.25 784.75 c 4
 42.25 821.25 43.5 846 46 859 c 4
 48.5 872 51 882.75 53.5 891.25 c 4
 56 899.75 61.5 905.75 70 909.25 c 4
 78.5 912.75 89.5 915.75 103 918.25 c 4
 116.5 920.75 141.5 922 178 922 c 4
 214.5 922 239.5 920.75 253 918.25 c 4
 266.5 915.75 277.5 913 286 910 c 4
 294.5 907 300 902 302.5 895 c 4
 305 888 307.75 877 310.75 862 c 4
 313.75 847 315.25 821.25 315.25 784.75 c 4
 315.25 748.25 313.75 724 310.75 712 c 4
 307.75 700 304.5 689.75 301 681.25 c 4
 297.5 672.75 291.25 666.25 282.25 661.75 c 4
 273.25 657.25 262.75 653.5 250.75 650.5 c 4
 238.75 647.5 214.5 646 178 646 c 4
 141.5 646 117.25 647 105.25 649 c 4
 93.25 651 79.25 656 63.25 664 c 5
EndSplineSet
Validated: 524289
EndChar

StartChar: one
Encoding: 49 49 16
Width: 662
VWidth: 1239
Flags: W
HStem: 646 276<43.9985 271.482 367.999 595.482>
VStem: 22.25 273<669.817 906.156> 346.25 273<669.817 906.156>
LayerCount: 2
Fore
SplineSet
43.25 664 m 1
 34.25 682 28.5 697.5 26 710.5 c 0
 23.5 723.5 22.25 748.25 22.25 784.75 c 0
 22.25 821.25 23.5 846 26 859 c 0
 28.5 872 31 882.75 33.5 891.25 c 0
 36 899.75 41.5 905.75 50 909.25 c 0
 58.5 912.75 69.5 915.75 83 918.25 c 0
 96.5 920.75 121.5 922 158 922 c 0
 194.5 922 219.5 920.75 233 918.25 c 0
 246.5 915.75 257.5 913 266 910 c 0
 274.5 907 280 902 282.5 895 c 0
 285 888 287.75 877 290.75 862 c 0
 293.75 847 295.25 821.25 295.25 784.75 c 0
 295.25 748.25 293.75 724 290.75 712 c 0
 287.75 700 284.5 689.75 281 681.25 c 0
 277.5 672.75 271.25 666.25 262.25 661.75 c 0
 253.25 657.25 242.75 653.5 230.75 650.5 c 0
 218.75 647.5 194.5 646 158 646 c 0
 121.5 646 97.25 647 85.25 649 c 0
 73.25 651 59.25 656 43.25 664 c 1
367.25 664 m 1
 358.25 682 352.5 697.5 350 710.5 c 0
 347.5 723.5 346.25 748.25 346.25 784.75 c 0
 346.25 821.25 347.5 846 350 859 c 0
 352.5 872 355 882.75 357.5 891.25 c 0
 360 899.75 365.5 905.75 374 909.25 c 0
 382.5 912.75 393.5 915.75 407 918.25 c 0
 420.5 920.75 445.5 922 482 922 c 0
 518.5 922 543.5 920.75 557 918.25 c 0
 570.5 915.75 581.5 913 590 910 c 0
 598.5 907 604 902 606.5 895 c 0
 609 888 611.75 877 614.75 862 c 0
 617.75 847 619.25 821.25 619.25 784.75 c 0
 619.25 748.25 617.75 724 614.75 712 c 0
 611.75 700 608.5 689.75 605 681.25 c 0
 601.5 672.75 595.25 666.25 586.25 661.75 c 0
 577.25 657.25 566.75 653.5 554.75 650.5 c 0
 542.75 647.5 518.5 646 482 646 c 0
 445.5 646 421.25 647 409.25 649 c 0
 397.25 651 383.25 656 367.25 664 c 1
EndSplineSet
Validated: 524289
EndChar

StartChar: two
Encoding: 50 50 17
Width: 662
VWidth: 1293
Flags: W
HStem: 322.5 276<386.999 614.482> 648 276<59.9985 287.482 383.999 611.482>
VStem: 38.25 273<671.817 908.156> 365.25 273<346.317 582.656 675.193 906>
LayerCount: 2
Fore
SplineSet
59.25 666 m 5
 50.25 684 44.5 699.5 42 712.5 c 4
 39.5 725.5 38.25 750.25 38.25 786.75 c 4
 38.25 823.25 39.5 848 42 861 c 4
 44.5 874 47 884.75 49.5 893.25 c 4
 52 901.75 57.5 907.75 66 911.25 c 4
 74.5 914.75 85.5 917.75 99 920.25 c 4
 112.5 922.75 137.5 924 174 924 c 4
 210.5 924 235.5 922.75 249 920.25 c 4
 262.5 917.75 273.5 915 282 912 c 4
 290.5 909 296 904 298.5 897 c 4
 301 890 303.75 879 306.75 864 c 4
 309.75 849 311.25 823.25 311.25 786.75 c 4
 311.25 750.25 309.75 726 306.75 714 c 4
 303.75 702 300.5 691.75 297 683.25 c 4
 293.5 674.75 287.25 668.25 278.25 663.75 c 4
 269.25 659.25 258.75 655.5 246.75 652.5 c 4
 234.75 649.5 210.5 648 174 648 c 4
 137.5 648 113.25 649 101.25 651 c 4
 89.25 653 75.25 658 59.25 666 c 5
383.25 666 m 5
 374.25 684 368.5 699.5 366 712.5 c 4
 363.5 725.5 362.25 750.25 362.25 786.75 c 4
 362.25 823.25 363.5 848 366 861 c 4
 368.5 874 371 884.75 373.5 893.25 c 4
 376 901.75 381.5 907.75 390 911.25 c 4
 398.5 914.75 409.5 917.75 423 920.25 c 4
 436.5 922.75 461.5 924 498 924 c 4
 534.5 924 559.5 922.75 573 920.25 c 4
 586.5 917.75 597.5 915 606 912 c 4
 614.5 909 620 904 622.5 897 c 4
 625 890 627.75 879 630.75 864 c 4
 633.75 849 635.25 823.25 635.25 786.75 c 4
 635.25 750.25 633.75 726 630.75 714 c 4
 627.75 702 624.5 691.75 621 683.25 c 4
 617.5 674.75 611.25 668.25 602.25 663.75 c 4
 593.25 659.25 582.75 655.5 570.75 652.5 c 4
 558.75 649.5 534.5 648 498 648 c 4
 461.5 648 437.25 649 425.25 651 c 4
 413.25 653 399.25 658 383.25 666 c 5
386.25 340.5 m 5
 377.25 358.5 371.5 374 369 387 c 4
 366.5 400 365.25 424.75 365.25 461.25 c 4
 365.25 497.75 366.5 522.5 369 535.5 c 4
 371.5 548.5 374 559.25 376.5 567.75 c 4
 379 576.25 384.5 582.25 393 585.75 c 4
 401.5 589.25 412.5 592.25 426 594.75 c 4
 439.5 597.25 464.5 598.5 501 598.5 c 4
 537.5 598.5 562.5 597.25 576 594.75 c 4
 589.5 592.25 600.5 589.5 609 586.5 c 4
 617.5 583.5 623 578.5 625.5 571.5 c 4
 628 564.5 630.75 553.5 633.75 538.5 c 4
 636.75 523.5 638.25 497.75 638.25 461.25 c 4
 638.25 424.75 636.75 400.5 633.75 388.5 c 4
 630.75 376.5 627.5 366.25 624 357.75 c 4
 620.5 349.25 614.25 342.75 605.25 338.25 c 4
 596.25 333.75 585.75 330 573.75 327 c 4
 561.75 324 537.5 322.5 501 322.5 c 4
 464.5 322.5 440.25 323.5 428.25 325.5 c 4
 416.25 327.5 402.25 332.5 386.25 340.5 c 5
EndSplineSet
Validated: 524289
EndChar

StartChar: three
Encoding: 51 51 18
Width: 662
VWidth: 1346
Flags: W
HStem: 2.5 276<378.999 606.482> 320.5 276<381.999 609.482> 646 276<54.9985 282.482 378.999 606.482>
VStem: 33.25 273<669.817 906.156> 357.25 273<26.3165 262.656 342.725 578.247 669.817 906.156>
LayerCount: 2
Fore
SplineSet
378.25 20.5 m 5
 369.25 38.5 363.5 54 361 67 c 4
 358.5 80 357.25 104.75 357.25 141.25 c 4
 357.25 177.75 358.5 202.5 361 215.5 c 4
 363.5 228.5 366 239.25 368.5 247.75 c 4
 371 256.25 376.5 262.25 385 265.75 c 4
 393.5 269.25 404.5 272.25 418 274.75 c 4
 431.5 277.25 456.5 278.5 493 278.5 c 4
 529.5 278.5 554.5 277.25 568 274.75 c 4
 581.5 272.25 592.5 269.5 601 266.5 c 4
 609.5 263.5 615 258.5 617.5 251.5 c 4
 620 244.5 622.75 233.5 625.75 218.5 c 4
 628.75 203.5 630.25 177.75 630.25 141.25 c 4
 630.25 104.75 628.75 80.5 625.75 68.5 c 4
 622.75 56.5 619.5 46.25 616 37.75 c 4
 612.5 29.25 606.25 22.75 597.25 18.25 c 4
 588.25 13.75 577.75 10 565.75 7 c 4
 553.75 4 529.5 2.5 493 2.5 c 4
 456.5 2.5 432.25 3.5 420.25 5.5 c 4
 408.25 7.5 394.25 12.5 378.25 20.5 c 5
54.25 664 m 5
 45.25 682 39.5 697.5 37 710.5 c 4
 34.5 723.5 33.25 748.25 33.25 784.75 c 4
 33.25 821.25 34.5 846 37 859 c 4
 39.5 872 42 882.75 44.5 891.25 c 4
 47 899.75 52.5 905.75 61 909.25 c 4
 69.5 912.75 80.5 915.75 94 918.25 c 4
 107.5 920.75 132.5 922 169 922 c 4
 205.5 922 230.5 920.75 244 918.25 c 4
 257.5 915.75 268.5 913 277 910 c 4
 285.5 907 291 902 293.5 895 c 4
 296 888 298.75 877 301.75 862 c 4
 304.75 847 306.25 821.25 306.25 784.75 c 4
 306.25 748.25 304.75 724 301.75 712 c 4
 298.75 700 295.5 689.75 292 681.25 c 4
 288.5 672.75 282.25 666.25 273.25 661.75 c 4
 264.25 657.25 253.75 653.5 241.75 650.5 c 4
 229.75 647.5 205.5 646 169 646 c 4
 132.5 646 108.25 647 96.25 649 c 4
 84.25 651 70.25 656 54.25 664 c 5
378.25 664 m 5
 369.25 682 363.5 697.5 361 710.5 c 4
 358.5 723.5 357.25 748.25 357.25 784.75 c 4
 357.25 821.25 358.5 846 361 859 c 4
 363.5 872 366 882.75 368.5 891.25 c 4
 371 899.75 376.5 905.75 385 909.25 c 4
 393.5 912.75 404.5 915.75 418 918.25 c 4
 431.5 920.75 456.5 922 493 922 c 4
 529.5 922 554.5 920.75 568 918.25 c 4
 581.5 915.75 592.5 913 601 910 c 4
 609.5 907 615 902 617.5 895 c 4
 620 888 622.75 877 625.75 862 c 4
 628.75 847 630.25 821.25 630.25 784.75 c 4
 630.25 748.25 628.75 724 625.75 712 c 4
 622.75 700 619.5 689.75 616 681.25 c 4
 612.5 672.75 606.25 666.25 597.25 661.75 c 4
 588.25 657.25 577.75 653.5 565.75 650.5 c 4
 553.75 647.5 529.5 646 493 646 c 4
 456.5 646 432.25 647 420.25 649 c 4
 408.25 651 394.25 656 378.25 664 c 5
381.25 338.5 m 5
 372.25 356.5 366.5 372 364 385 c 4
 361.5 398 360.25 422.75 360.25 459.25 c 4
 360.25 495.75 361.5 520.5 364 533.5 c 4
 366.5 546.5 369 557.25 371.5 565.75 c 4
 374 574.25 379.5 580.25 388 583.75 c 4
 396.5 587.25 407.5 590.25 421 592.75 c 4
 434.5 595.25 459.5 596.5 496 596.5 c 4
 532.5 596.5 557.5 595.25 571 592.75 c 4
 584.5 590.25 595.5 587.5 604 584.5 c 4
 612.5 581.5 618 576.5 620.5 569.5 c 4
 623 562.5 625.75 551.5 628.75 536.5 c 4
 631.75 521.5 633.25 495.75 633.25 459.25 c 4
 633.25 422.75 631.75 398.5 628.75 386.5 c 4
 625.75 374.5 622.5 364.25 619 355.75 c 4
 615.5 347.25 609.25 340.75 600.25 336.25 c 4
 591.25 331.75 580.75 328 568.75 325 c 4
 556.75 322 532.5 320.5 496 320.5 c 4
 459.5 320.5 435.25 321.5 423.25 323.5 c 4
 411.25 325.5 397.25 330.5 381.25 338.5 c 5
EndSplineSet
Validated: 524289
EndChar

StartChar: four
Encoding: 52 52 19
Width: 661
VWidth: 1293
Flags: W
HStem: 647 276<362.999 590.482>
VStem: 24.75 256.5<360.5 904.613> 341.25 273<670.817 907.156>
LayerCount: 2
Fore
SplineSet
362.25 665 m 5
 353.25 683 347.5 698.5 345 711.5 c 4
 342.5 724.5 341.25 749.25 341.25 785.75 c 4
 341.25 822.25 342.5 847 345 860 c 4
 347.5 873 350 883.75 352.5 892.25 c 4
 355 900.75 360.5 906.75 369 910.25 c 4
 377.5 913.75 388.5 916.75 402 919.25 c 4
 415.5 921.75 440.5 923 477 923 c 4
 513.5 923 538.5 921.75 552 919.25 c 4
 565.5 916.75 576.5 914 585 911 c 4
 593.5 908 599 903 601.5 896 c 4
 604 889 606.75 878 609.75 863 c 4
 612.75 848 614.25 822.25 614.25 785.75 c 4
 614.25 749.25 612.75 725 609.75 713 c 4
 606.75 701 603.5 690.75 600 682.25 c 4
 596.5 673.75 590.25 667.25 581.25 662.75 c 4
 572.25 658.25 561.75 654.5 549.75 651.5 c 4
 537.75 648.5 513.5 647 477 647 c 4
 440.5 647 416.25 648 404.25 650 c 4
 392.25 652 378.25 657 362.25 665 c 5
30.75 360.5 m 5
 24.75 422 l 5
 24.75 831.5 l 6
 25.75 872.5 30.5 897 39 905 c 4
 47.5 913 59.5 918 75 920 c 4
 90.5 922 116.5 923 153 923 c 4
 189.5 923 215 921.75 229.5 919.25 c 4
 244 916.75 255.75 912.5 264.75 906.5 c 4
 273.75 900.5 279.25 879.5 281.25 843.5 c 6
 281.25 426.5 l 6
 279.25 385.5 274.75 360.25 267.75 350.75 c 4
 260.75 341.25 249 334.25 232.5 329.75 c 4
 216 325.25 189.5 323 153 323 c 4
 116.5 323 90.5 324.75 75 328.25 c 4
 59.5 331.75 44.75 342.5 30.75 360.5 c 5
EndSplineSet
Validated: 524289
EndChar

StartChar: five
Encoding: 53 53 20
Width: 660
VWidth: 1293
Flags: W
HStem: 321.5 276<369.999 597.482> 647 276<366.999 594.482>
VStem: 28.75 256.5<360.5 904.613> 348.25 273<345.317 581.656 674.193 905>
LayerCount: 2
Fore
SplineSet
366.25 665 m 5
 357.25 683 351.5 698.5 349 711.5 c 4
 346.5 724.5 345.25 749.25 345.25 785.75 c 4
 345.25 822.25 346.5 847 349 860 c 4
 351.5 873 354 883.75 356.5 892.25 c 4
 359 900.75 364.5 906.75 373 910.25 c 4
 381.5 913.75 392.5 916.75 406 919.25 c 4
 419.5 921.75 444.5 923 481 923 c 4
 517.5 923 542.5 921.75 556 919.25 c 4
 569.5 916.75 580.5 914 589 911 c 4
 597.5 908 603 903 605.5 896 c 4
 608 889 610.75 878 613.75 863 c 4
 616.75 848 618.25 822.25 618.25 785.75 c 4
 618.25 749.25 616.75 725 613.75 713 c 4
 610.75 701 607.5 690.75 604 682.25 c 4
 600.5 673.75 594.25 667.25 585.25 662.75 c 4
 576.25 658.25 565.75 654.5 553.75 651.5 c 4
 541.75 648.5 517.5 647 481 647 c 4
 444.5 647 420.25 648 408.25 650 c 4
 396.25 652 382.25 657 366.25 665 c 5
369.25 339.5 m 5
 360.25 357.5 354.5 373 352 386 c 4
 349.5 399 348.25 423.75 348.25 460.25 c 4
 348.25 496.75 349.5 521.5 352 534.5 c 4
 354.5 547.5 357 558.25 359.5 566.75 c 4
 362 575.25 367.5 581.25 376 584.75 c 4
 384.5 588.25 395.5 591.25 409 593.75 c 4
 422.5 596.25 447.5 597.5 484 597.5 c 4
 520.5 597.5 545.5 596.25 559 593.75 c 4
 572.5 591.25 583.5 588.5 592 585.5 c 4
 600.5 582.5 606 577.5 608.5 570.5 c 4
 611 563.5 613.75 552.5 616.75 537.5 c 4
 619.75 522.5 621.25 496.75 621.25 460.25 c 4
 621.25 423.75 619.75 399.5 616.75 387.5 c 4
 613.75 375.5 610.5 365.25 607 356.75 c 4
 603.5 348.25 597.25 341.75 588.25 337.25 c 4
 579.25 332.75 568.75 329 556.75 326 c 4
 544.75 323 520.5 321.5 484 321.5 c 4
 447.5 321.5 423.25 322.5 411.25 324.5 c 4
 399.25 326.5 385.25 331.5 369.25 339.5 c 5
34.75 360.5 m 5
 28.75 422 l 5
 28.75 831.5 l 6
 29.75 872.5 34.5 897 43 905 c 4
 51.5 913 63.5 918 79 920 c 4
 94.5 922 120.5 923 157 923 c 4
 193.5 923 219 921.75 233.5 919.25 c 4
 248 916.75 259.75 912.5 268.75 906.5 c 4
 277.75 900.5 283.25 879.5 285.25 843.5 c 6
 285.25 426.5 l 6
 283.25 385.5 278.75 360.25 271.75 350.75 c 4
 264.75 341.25 253 334.25 236.5 329.75 c 4
 220 325.25 193.5 323 157 323 c 4
 120.5 323 94.5 324.75 79 328.25 c 4
 63.5 331.75 48.75 342.5 34.75 360.5 c 5
EndSplineSet
Validated: 524289
EndChar

StartChar: six
Encoding: 54 54 21
Width: 660
VWidth: 1346
Flags: W
HStem: 0 276<371.999 599.482> 318 276<374.999 602.482> 643.5 276<371.999 599.482>
VStem: 33.75 256.5<357 901.113> 350.25 273<23.8165 260.156 340.225 575.747 667.317 903.656>
LayerCount: 2
Fore
SplineSet
371.25 661.5 m 5
 362.25 679.5 356.5 695 354 708 c 4
 351.5 721 350.25 745.75 350.25 782.25 c 4
 350.25 818.75 351.5 843.5 354 856.5 c 4
 356.5 869.5 359 880.25 361.5 888.75 c 4
 364 897.25 369.5 903.25 378 906.75 c 4
 386.5 910.25 397.5 913.25 411 915.75 c 4
 424.5 918.25 449.5 919.5 486 919.5 c 4
 522.5 919.5 547.5 918.25 561 915.75 c 4
 574.5 913.25 585.5 910.5 594 907.5 c 4
 602.5 904.5 608 899.5 610.5 892.5 c 4
 613 885.5 615.75 874.5 618.75 859.5 c 4
 621.75 844.5 623.25 818.75 623.25 782.25 c 4
 623.25 745.75 621.75 721.5 618.75 709.5 c 4
 615.75 697.5 612.5 687.25 609 678.75 c 4
 605.5 670.25 599.25 663.75 590.25 659.25 c 4
 581.25 654.75 570.75 651 558.75 648 c 4
 546.75 645 522.5 643.5 486 643.5 c 4
 449.5 643.5 425.25 644.5 413.25 646.5 c 4
 401.25 648.5 387.25 653.5 371.25 661.5 c 5
374.25 336 m 5
 365.25 354 359.5 369.5 357 382.5 c 4
 354.5 395.5 353.25 420.25 353.25 456.75 c 4
 353.25 493.25 354.5 518 357 531 c 4
 359.5 544 362 554.75 364.5 563.25 c 4
 367 571.75 372.5 577.75 381 581.25 c 4
 389.5 584.75 400.5 587.75 414 590.25 c 4
 427.5 592.75 452.5 594 489 594 c 4
 525.5 594 550.5 592.75 564 590.25 c 4
 577.5 587.75 588.5 585 597 582 c 4
 605.5 579 611 574 613.5 567 c 4
 616 560 618.75 549 621.75 534 c 4
 624.75 519 626.25 493.25 626.25 456.75 c 4
 626.25 420.25 624.75 396 621.75 384 c 4
 618.75 372 615.5 361.75 612 353.25 c 4
 608.5 344.75 602.25 338.25 593.25 333.75 c 4
 584.25 329.25 573.75 325.5 561.75 322.5 c 4
 549.75 319.5 525.5 318 489 318 c 4
 452.5 318 428.25 319 416.25 321 c 4
 404.25 323 390.25 328 374.25 336 c 5
371.25 18 m 5
 362.25 36 356.5 51.5 354 64.5 c 4
 351.5 77.5 350.25 102.25 350.25 138.75 c 4
 350.25 175.25 351.5 200 354 213 c 4
 356.5 226 359 236.75 361.5 245.25 c 4
 364 253.75 369.5 259.75 378 263.25 c 4
 386.5 266.75 397.5 269.75 411 272.25 c 4
 424.5 274.75 449.5 276 486 276 c 4
 522.5 276 547.5 274.75 561 272.25 c 4
 574.5 269.75 585.5 267 594 264 c 4
 602.5 261 608 256 610.5 249 c 4
 613 242 615.75 231 618.75 216 c 4
 621.75 201 623.25 175.25 623.25 138.75 c 4
 623.25 102.25 621.75 78 618.75 66 c 4
 615.75 54 612.5 43.75 609 35.25 c 4
 605.5 26.75 599.25 20.25 590.25 15.75 c 4
 581.25 11.25 570.75 7.5 558.75 4.5 c 4
 546.75 1.5 522.5 0 486 0 c 4
 449.5 0 425.25 1 413.25 3 c 4
 401.25 5 387.25 10 371.25 18 c 5
39.75 357 m 5
 33.75 418.5 l 5
 33.75 828 l 6
 34.75 869 39.5 893.5 48 901.5 c 4
 56.5 909.5 68.5 914.5 84 916.5 c 4
 99.5 918.5 125.5 919.5 162 919.5 c 4
 198.5 919.5 224 918.25 238.5 915.75 c 4
 253 913.25 264.75 909 273.75 903 c 4
 282.75 897 288.25 876 290.25 840 c 6
 290.25 423 l 6
 288.25 382 283.75 356.75 276.75 347.25 c 4
 269.75 337.75 258 330.75 241.5 326.25 c 4
 225 321.75 198.5 319.5 162 319.5 c 4
 125.5 319.5 99.5 321.25 84 324.75 c 4
 68.5 328.25 53.75 339 39.75 357 c 5
EndSplineSet
Validated: 524289
EndChar

StartChar: seven
Encoding: 55 55 22
Width: 661
VWidth: 1346
Flags: W
HStem: 0 21G<141.75 178.25> 0 21G<141.75 178.25> 643.5 276<369.999 597.482>
VStem: 31.75 256.5<54.9 888.873> 43.75 237<13.9689 108.375 499.172 909.897> 348.25 273<667.317 903.656>
LayerCount: 2
Fore
SplineSet
39.25 48 m 5xb4
 31.75 151.5 l 5
 31.75 780 l 6xb4
 33.75 840 37.75 876.5 43.75 889.5 c 4
 49.75 902.5 61.5 910.75 79 914.25 c 4
 96.5 917.75 123.5 919.5 160 919.5 c 4
 196.5 919.5 224.5 918.5 244 916.5 c 4
 263.5 914.5 275.75 906.75 280.75 893.25 c 4xac
 285.75 879.75 288.25 848 288.25 798 c 6
 288.25 160.5 l 6
 287.25 88.5 283.5 46 277 33 c 4
 270.5 20 258.5 11.25 241 6.75 c 4
 223.5 2.25 196.5 0 160 0 c 4
 123.5 0 96.25 2.75 78.25 8.25 c 4
 60.25 13.75 47.25 27 39.25 48 c 5xb4
369.25 661.5 m 5
 360.25 679.5 354.5 695 352 708 c 4
 349.5 721 348.25 745.75 348.25 782.25 c 4
 348.25 818.75 349.5 843.5 352 856.5 c 4
 354.5 869.5 357 880.25 359.5 888.75 c 4
 362 897.25 367.5 903.25 376 906.75 c 4
 384.5 910.25 395.5 913.25 409 915.75 c 4
 422.5 918.25 447.5 919.5 484 919.5 c 4
 520.5 919.5 545.5 918.25 559 915.75 c 4
 572.5 913.25 583.5 910.5 592 907.5 c 4
 600.5 904.5 606 899.5 608.5 892.5 c 4
 611 885.5 613.75 874.5 616.75 859.5 c 4
 619.75 844.5 621.25 818.75 621.25 782.25 c 4
 621.25 745.75 619.75 721.5 616.75 709.5 c 4
 613.75 697.5 610.5 687.25 607 678.75 c 4
 603.5 670.25 597.25 663.75 588.25 659.25 c 4
 579.25 654.75 568.75 651 556.75 648 c 4
 544.75 645 520.5 643.5 484 643.5 c 4
 447.5 643.5 423.25 644.5 411.25 646.5 c 4
 399.25 648.5 385.25 653.5 369.25 661.5 c 5
EndSplineSet
Validated: 524289
EndChar

StartChar: eight
Encoding: 56 56 23
Width: 660
VWidth: 1346
Flags: W
HStem: 0 21G<147.75 184.25> 0 21G<147.75 184.25> 318 276<378.999 606.482> 643.5 276<375.999 603.482>
VStem: 37.75 256.5<54.9 888.873> 49.75 237<13.9689 108.375 499.172 909.897> 357.25 273<341.817 578.156 670.693 901.5>
LayerCount: 2
Fore
SplineSet
45.25 48 m 5xba
 37.75 151.5 l 5
 37.75 780 l 6xba
 39.75 840 43.75 876.5 49.75 889.5 c 4
 55.75 902.5 67.5 910.75 85 914.25 c 4
 102.5 917.75 129.5 919.5 166 919.5 c 4
 202.5 919.5 230.5 918.5 250 916.5 c 4
 269.5 914.5 281.75 906.75 286.75 893.25 c 4xb6
 291.75 879.75 294.25 848 294.25 798 c 6
 294.25 160.5 l 6
 293.25 88.5 289.5 46 283 33 c 4
 276.5 20 264.5 11.25 247 6.75 c 4
 229.5 2.25 202.5 0 166 0 c 4
 129.5 0 102.25 2.75 84.25 8.25 c 4
 66.25 13.75 53.25 27 45.25 48 c 5xba
375.25 661.5 m 5
 366.25 679.5 360.5 695 358 708 c 4
 355.5 721 354.25 745.75 354.25 782.25 c 4
 354.25 818.75 355.5 843.5 358 856.5 c 4
 360.5 869.5 363 880.25 365.5 888.75 c 4
 368 897.25 373.5 903.25 382 906.75 c 4
 390.5 910.25 401.5 913.25 415 915.75 c 4
 428.5 918.25 453.5 919.5 490 919.5 c 4
 526.5 919.5 551.5 918.25 565 915.75 c 4
 578.5 913.25 589.5 910.5 598 907.5 c 4
 606.5 904.5 612 899.5 614.5 892.5 c 4
 617 885.5 619.75 874.5 622.75 859.5 c 4
 625.75 844.5 627.25 818.75 627.25 782.25 c 4
 627.25 745.75 625.75 721.5 622.75 709.5 c 4
 619.75 697.5 616.5 687.25 613 678.75 c 4
 609.5 670.25 603.25 663.75 594.25 659.25 c 4
 585.25 654.75 574.75 651 562.75 648 c 4
 550.75 645 526.5 643.5 490 643.5 c 4
 453.5 643.5 429.25 644.5 417.25 646.5 c 4
 405.25 648.5 391.25 653.5 375.25 661.5 c 5
378.25 336 m 5
 369.25 354 363.5 369.5 361 382.5 c 4
 358.5 395.5 357.25 420.25 357.25 456.75 c 4
 357.25 493.25 358.5 518 361 531 c 4
 363.5 544 366 554.75 368.5 563.25 c 4
 371 571.75 376.5 577.75 385 581.25 c 4
 393.5 584.75 404.5 587.75 418 590.25 c 4
 431.5 592.75 456.5 594 493 594 c 4
 529.5 594 554.5 592.75 568 590.25 c 4
 581.5 587.75 592.5 585 601 582 c 4
 609.5 579 615 574 617.5 567 c 4
 620 560 622.75 549 625.75 534 c 4
 628.75 519 630.25 493.25 630.25 456.75 c 4
 630.25 420.25 628.75 396 625.75 384 c 4
 622.75 372 619.5 361.75 616 353.25 c 4
 612.5 344.75 606.25 338.25 597.25 333.75 c 4
 588.25 329.25 577.75 325.5 565.75 322.5 c 4
 553.75 319.5 529.5 318 493 318 c 4
 456.5 318 432.25 319 420.25 321 c 4
 408.25 323 394.25 328 378.25 336 c 5
EndSplineSet
Validated: 524289
EndChar

StartChar: nine
Encoding: 57 57 24
Width: 660
VWidth: 1346
Flags: W
HStem: 2 919.5<66.613 279.825> 2 276<380.999 608.482> 320 276<383.999 611.482> 645.5 276<380.999 608.482>
VStem: 42.75 256.5<56.9 890.873> 54.75 237<15.9689 110.375 501.172 911.897> 359.25 273<25.8165 262.156 342.225 577.747 669.317 905.656>
LayerCount: 2
Fore
SplineSet
50.25 50 m 5x8a
 42.75 153.5 l 5
 42.75 782 l 6x8a
 44.75 842 48.75 878.5 54.75 891.5 c 4
 60.75 904.5 72.5 912.75 90 916.25 c 4
 107.5 919.75 134.5 921.5 171 921.5 c 4
 207.5 921.5 235.5 920.5 255 918.5 c 4
 274.5 916.5 286.75 908.75 291.75 895.25 c 4x86
 296.75 881.75 299.25 850 299.25 800 c 6
 299.25 162.5 l 6
 298.25 90.5 294.5 48 288 35 c 4
 281.5 22 269.5 13.25 252 8.75 c 4
 234.5 4.25 207.5 2 171 2 c 4
 134.5 2 107.25 4.75 89.25 10.25 c 4
 71.25 15.75 58.25 29 50.25 50 c 5x8a
380.25 663.5 m 5
 371.25 681.5 365.5 697 363 710 c 4
 360.5 723 359.25 747.75 359.25 784.25 c 4
 359.25 820.75 360.5 845.5 363 858.5 c 4
 365.5 871.5 368 882.25 370.5 890.75 c 4
 373 899.25 378.5 905.25 387 908.75 c 4
 395.5 912.25 406.5 915.25 420 917.75 c 4
 433.5 920.25 458.5 921.5 495 921.5 c 4
 531.5 921.5 556.5 920.25 570 917.75 c 4
 583.5 915.25 594.5 912.5 603 909.5 c 4
 611.5 906.5 617 901.5 619.5 894.5 c 4
 622 887.5 624.75 876.5 627.75 861.5 c 4
 630.75 846.5 632.25 820.75 632.25 784.25 c 4
 632.25 747.75 630.75 723.5 627.75 711.5 c 4
 624.75 699.5 621.5 689.25 618 680.75 c 4
 614.5 672.25 608.25 665.75 599.25 661.25 c 4
 590.25 656.75 579.75 653 567.75 650 c 4
 555.75 647 531.5 645.5 495 645.5 c 4x12
 458.5 645.5 434.25 646.5 422.25 648.5 c 4
 410.25 650.5 396.25 655.5 380.25 663.5 c 5
383.25 338 m 5
 374.25 356 368.5 371.5 366 384.5 c 4
 363.5 397.5 362.25 422.25 362.25 458.75 c 4
 362.25 495.25 363.5 520 366 533 c 4
 368.5 546 371 556.75 373.5 565.25 c 4
 376 573.75 381.5 579.75 390 583.25 c 4
 398.5 586.75 409.5 589.75 423 592.25 c 4
 436.5 594.75 461.5 596 498 596 c 4
 534.5 596 559.5 594.75 573 592.25 c 4
 586.5 589.75 597.5 587 606 584 c 4
 614.5 581 620 576 622.5 569 c 4
 625 562 627.75 551 630.75 536 c 4
 633.75 521 635.25 495.25 635.25 458.75 c 4
 635.25 422.25 633.75 398 630.75 386 c 4
 627.75 374 624.5 363.75 621 355.25 c 4
 617.5 346.75 611.25 340.25 602.25 335.75 c 4
 593.25 331.25 582.75 327.5 570.75 324.5 c 4
 558.75 321.5 534.5 320 498 320 c 4x22
 461.5 320 437.25 321 425.25 323 c 4
 413.25 325 399.25 330 383.25 338 c 5
380.25 20 m 5
 371.25 38 365.5 53.5 363 66.5 c 4
 360.5 79.5 359.25 104.25 359.25 140.75 c 4
 359.25 177.25 360.5 202 363 215 c 4
 365.5 228 368 238.75 370.5 247.25 c 4
 373 255.75 378.5 261.75 387 265.25 c 4
 395.5 268.75 406.5 271.75 420 274.25 c 4
 433.5 276.75 458.5 278 495 278 c 4
 531.5 278 556.5 276.75 570 274.25 c 4
 583.5 271.75 594.5 269 603 266 c 4
 611.5 263 617 258 619.5 251 c 4
 622 244 624.75 233 627.75 218 c 4
 630.75 203 632.25 177.25 632.25 140.75 c 4
 632.25 104.25 630.75 80 627.75 68 c 4
 624.75 56 621.5 45.75 618 37.25 c 4
 614.5 28.75 608.25 22.25 599.25 17.75 c 4
 590.25 13.25 579.75 9.5 567.75 6.5 c 4
 555.75 3.5 531.5 2 495 2 c 4x42
 458.5 2 434.25 3 422.25 5 c 4
 410.25 7 396.25 12 380.25 20 c 5
EndSplineSet
Validated: 524289
EndChar

StartChar: colon
Encoding: 58 58 25
Width: 638
Flags: W
HStem: 0 206<86 279>
LayerCount: 2
Fore
SplineSet
86 0 m 1
 86 206 l 1
 279 206 l 1
 86 403 l 1
 86 693 l 1
 567 206 l 1
 567 0 l 1
 86 0 l 1
EndSplineSet
Validated: 1
EndChar

StartChar: semicolon
Encoding: 59 59 26
Width: 516
Flags: W
HStem: -1 21G<146 344> -1 21G<146 344> 956 20G<146 344>
VStem: 146 198<-1 976>
LayerCount: 2
Fore
SplineSet
344 976 m 1xb0
 344 -1 l 1
 146 -1 l 1
 146 976 l 1
 344 976 l 1xb0
EndSplineSet
Validated: 1
EndChar

StartChar: less
Encoding: 60 60 27
Width: 1251
Flags: W
HStem: -1 21G<27 257.812 1008 1206> -1 21G<27 257.812 1008 1206> 745 223<198 382 614 1008>
VStem: 1008 198<-1 745>
LayerCount: 2
Fore
SplineSet
1206 968 m 1xb0
 1206 -1 l 1
 1008 -1 l 1
 1008 745 l 1
 614 745 l 1
 248 -1 l 1
 27 -1 l 1
 382 728 l 1
 382 745 l 1
 198 745 l 1
 198 968 l 1
 1206 968 l 1xb0
EndSplineSet
Validated: 1
EndChar

StartChar: equal
Encoding: 61 61 28
Width: 1020
Flags: W
HStem: 0 223<277 464 561 749> 743 223<277 464 561 749>
VStem: 53 224<223 743> 749 223<223 743>
LayerCount: 2
Fore
SplineSet
911 966 m 1
 972 905 l 1
 972 61 l 1
 911 0 l 1
 561 0 l 1
 561 223 l 1
 749 223 l 1
 749 743 l 1
 561 743 l 1
 561 966 l 1
 911 966 l 1
464 966 m 1
 464 743 l 1
 277 743 l 1
 277 223 l 1
 464 223 l 1
 464 0 l 1
 115 0 l 1
 53 61 l 1
 53 905 l 1
 115 966 l 1
 464 966 l 1
EndSplineSet
Validated: 1
EndChar

StartChar: greater
Encoding: 62 62 29
Width: 1161
Flags: W
HStem: -1 21G<36 309.904 902 1126> -1 21G<36 309.904 902 1126> 373 224<556 902> 948 20G<902 1126> 948 20G<902 1126>
VStem: 902 224<-1 373 597 968>
LayerCount: 2
Fore
SplineSet
1126 968 m 1xb4
 1126 -1 l 1
 902 -1 l 1
 902 373 l 1
 556 373 l 1
 296 -1 l 1
 36 -1 l 1
 450 597 l 1
 902 597 l 1
 902 968 l 1
 1126 968 l 1xb4
EndSplineSet
Validated: 1
EndChar

StartChar: question
Encoding: 63 63 30
Width: 646
Flags: W
LayerCount: 2
Fore
SplineSet
175 24 m 1
 155 0 l 1
 378 0 l 1
 412 34 l 1
 441 76 l 1
 472 123 l 1
 503 182 l 1
 529 255 l 1
 549 330 l 1
 558 419 l 1
 564 507 l 1
 558 595 l 1
 549 676 l 1
 532 754 l 1
 512 813 l 1
 483 868 l 1
 455 915 l 1
 421 954 l 1
 401 974 l 1
 78 974 l 1
 78 507 l 1
 289 507 l 1
 289 858 l 1
 312 811 l 1
 332 754 l 1
 349 678 l 1
 363 595 l 1
 369 512 l 1
 363 429 l 1
 352 338 l 1
 332 271 l 1
 306 208 l 1
 275 156 l 1
 243 107 l 1
 209 65 l 1
 175 24 l 1
EndSplineSet
Validated: 9
EndChar

StartChar: A
Encoding: 65 65 31
Width: 1686
Flags: W
HStem: 0 21G<44 267 1193.47 1657> 0 21G<44 267 1193.47 1657> 191 225<267 864> 556 225<270 881> 952 20G<44 270 1160.33 1647> 952 20G<44 270 1160.33 1647>
VStem: 44 223<0 191 781 972>
LayerCount: 2
Fore
SplineSet
44 972 m 1x3a
 270 972 l 1
 270 781 l 1
 881 781 l 1
 1193 972 l 1
 1647 972 l 1
 881 556 l 1
 44 556 l 1
 44 972 l 1x3a
44 416 m 1
 906 416 l 1
 1657 0 l 1
 1232 0 l 1
 864 191 l 1
 267 191 l 1
 267 0 l 1
 44 0 l 1xb2
 44 416 l 1
EndSplineSet
Validated: 1
EndChar

StartChar: B
Encoding: 66 66 32
Width: 1566
Flags: W
HStem: -1 215<388 1178> 370 232<480 1113> 748 217<392 1180>
LayerCount: 2
Fore
SplineSet
309 965 m 1
 1259 965 l 1
 1538 650 l 1
 1538 599 l 1
 1292 599 l 1
 1180 748 l 1
 392 748 l 1
 275 599 l 1
 30 599 l 1
 30 650 l 1
 309 965 l 1
480 602 m 1
 1113 602 l 1
 1113 370 l 1
 480 370 l 1
 480 602 l 1
27 343 m 1
 273 343 l 1
 388 214 l 1
 1178 214 l 1
 1291 341 l 1
 1536 341 l 1
 1536 296 l 1
 1257 -1 l 1
 306 -1 l 1
 27 296 l 1
 27 343 l 1
EndSplineSet
Validated: 1
EndChar

StartChar: C
Encoding: 67 67 33
Width: 901
Flags: W
HStem: 0 21G<629 854> 0 21G<629 854>
VStem: 38 225<298 966> 335 222<298 668> 629 225<0 668>
CounterMasks: 1 38
LayerCount: 2
Fore
SplineSet
38 966 m 1x38
 263 966 l 1
 263 298 l 1
 38 298 l 1
 38 966 l 1x38
335 668 m 1
 557 668 l 1
 557 298 l 1
 335 298 l 1
 335 668 l 1
629 668 m 1
 854 668 l 1
 854 0 l 1
 629 0 l 1xb8
 629 668 l 1
EndSplineSet
Validated: 1
EndChar

StartChar: D
Encoding: 68 68 34
Width: 1240
Flags: W
HStem: 0 21G<102 410.962> 0 21G<102 410.962> 370 222<226 430> 744 221<165 753>
LayerCount: 2
Fore
SplineSet
1201 965 m 1xb0
 1198 948 l 1
 394 0 l 1
 102 0 l 1
 430 370 l 1
 74 370 l 1
 226 592 l 1
 623 592 l 1
 753 743 l 1
 22 744 l 1
 165 965 l 1
 1201 965 l 1xb0
EndSplineSet
Validated: 1
EndChar

StartChar: E
Encoding: 69 69 35
Width: 1510
Flags: W
HStem: 0 21G<476.401 754.506 1129 1331> 0 21G<476.401 754.506 1129 1331> 749 224<1101 1129 1331 1480>
VStem: 1129 202<0 749>
LayerCount: 2
Fore
SplineSet
1480 973 m 1xb0
 1480 749 l 1
 1331 749 l 1
 1331 0 l 1
 1129 0 l 1
 1129 749 l 1
 1101 749 l 1
 745 0 l 1
 486 0 l 1
 19 973 l 1
 270 973 l 1
 618 277 l 1
 955 973 l 1
 1480 973 l 1xb0
EndSplineSet
Validated: 1
EndChar

StartChar: F
Encoding: 70 70 36
Width: 1516
Flags: W
HStem: 0 223<261 647 852 1476> 452 218<260 551.676> 947 20G<646.923 852> 947 20G<646.923 852>
VStem: 40 221<223 452> 647 205<223 474 734 967>
LayerCount: 2
Fore
SplineSet
852 967 m 1xec
 852 734 l 1
 977.333333333 754.666666667 1077.33333333 778.666666667 1152 806 c 0
 1226.66666667 833.333333333 1334.66666667 891.333333333 1476 980 c 1
 1476 780 l 1
 1364 705.333333333 1264.33333333 650.166666667 1177 614.5 c 0
 1089.66666667 578.833333333 981.333333333 547.666666667 852 521 c 1
 852 223 l 1
 1476 223 l 1
 1476 0 l 1
 40 0 l 1
 40 669 l 1
 302 670 l 1
 420.666666667 675.333333333 535.333333333 687.333333333 646 706 c 1
 647 967 l 1
 852 967 l 1xec
261 223 m 1
 647 223 l 1
 647 474 l 1
 557 462 463.333333333 454.666666667 366 452 c 1
 260 452 l 1
 261 223 l 1
EndSplineSet
Validated: 1
EndChar

StartChar: G
Encoding: 71 71 37
Width: 1495
Flags: W
HStem: 0 225<249 810> 714 261<436 622> 773 202<622 1090>
VStem: 66 183<225 975>
LayerCount: 2
Fore
SplineSet
1444 975 m 1xb0
 1441 958 l 1
 918 0 l 1
 66 0 l 1
 66 975 l 1
 249 975 l 1
 249 225 l 1
 810 225 l 1
 1090 767 l 1
 1090 773 l 1
 622 773 l 1xb0
 622 714 l 1
 436 714 l 1
 436 975 l 1xd0
 1444 975 l 1xb0
EndSplineSet
Validated: 1
EndChar

StartChar: H
Encoding: 72 72 38
Width: 1570
Flags: W
HStem: 0 225<25 1539> 377 224<285 1279> 751 224<25 1539>
LayerCount: 2
Fore
SplineSet
1539 975 m 1
 1539 751 l 1
 25 751 l 1
 25 975 l 1
 1539 975 l 1
285 601 m 1
 1279 601 l 1
 1279 377 l 1
 285 377 l 1
 285 601 l 1
25 225 m 1
 1539 225 l 1
 1539 0 l 1
 25 0 l 1
 25 225 l 1
EndSplineSet
Validated: 1
EndChar

StartChar: I
Encoding: 73 73 39
Width: 629
Flags: W
HStem: 0 21G<387 572> 0 21G<387 572> 955 20G<311.356 572>
VStem: 387 185<0 730>
LayerCount: 2
Fore
SplineSet
572 975 m 1xb0
 572 0 l 1
 387 0 l 1
 387 730 l 1
 190 534 l 1
 47 678 l 2
 45 683.333333333 47.6666666667 688.666666667 55 694 c 2
 331 975 l 1
 572 975 l 1xb0
EndSplineSet
Validated: 1
EndChar

StartChar: J
Encoding: 74 74 40
Width: 1461
Flags: W
HStem: 0 219<52 824> 381 219<56 485.797> 952 20G<1144 1426> 952 20G<1144 1426>
LayerCount: 2
Fore
SplineSet
1426 971 m 1xe0
 960 0 l 1
 52 0 l 1
 52 219 l 1
 824 219 l 1
 960 523 l 1
 890.666666667 482.333333333 826.666666667 454.666666667 768 440 c 0
 709.333333333 425.333333333 642 412.5 566 401.5 c 0
 490 390.5 366.666666667 383.666666667 196 381 c 1
 56 381 l 1
 56 600 l 1
 200 600 l 1
 368 610.666666667 476 619.333333333 524 626 c 0
 572 632.666666667 637.333333333 648.333333333 720 673 c 1
 821.333333333 710.333333333 904 746 968 780 c 0
 1032 814 1104 878 1184 972 c 1
 1426 971 l 1xe0
EndSplineSet
Validated: 1
EndChar

StartChar: K
Encoding: 75 75 41
Width: 1521
Flags: W
HStem: 0 224<63 1243> 748 223<63 1243>
VStem: 1243 221<224 748>
LayerCount: 2
Fore
SplineSet
1437 971 m 1
 1449.66666667 965.666666667 1458.66666667 956.333333333 1464 943 c 1
 1464 33 l 1
 1459.33333333 17 1448.66666667 6 1432 0 c 1
 63 0 l 1
 63 224 l 1
 1243 224 l 1
 1243 748 l 1
 63 748 l 1
 63 971 l 1
 1437 971 l 1
EndSplineSet
Validated: 1
EndChar

StartChar: L
Encoding: 76 76 42
Width: 1007
Flags: W
HStem: -1 21G<653.492 944> -1 21G<653.492 944> 956 20G<746 944>
VStem: 746 198<222 976>
LayerCount: 2
Fore
SplineSet
944 976 m 1xb0
 944 -1 l 1
 684 -1 l 1
 54 412 l 1
 171 595 l 1
 746 222 l 1
 746 976 l 1
 944 976 l 1xb0
EndSplineSet
Validated: 1
EndChar

StartChar: M
Encoding: 77 77 43
Width: 1000
Flags: W
HStem: 0 224<409 826> 711 261<686 894>
LayerCount: 2
Fore
SplineSet
894 972 m 1
 894 711 l 1
 686 709 l 1
 409 224 l 1
 961 224 l 1
 826 0 l 1
 31 0 l 1
 566 972 l 1
 894 972 l 1
EndSplineSet
Validated: 1
EndChar

StartChar: N
Encoding: 78 78 44
Width: 1582
Flags: W
HStem: 0 21G<211 486.573 1289.11 1552> 0 21G<211 486.573 1289.11 1552> 952 20G<173 376 740.54 1019.19> 952 20G<173 376 740.54 1019.19>
LayerCount: 2
Fore
SplineSet
318 188 m 1xa0
 342 190 l 1
 751 972 l 1
 1008 972 l 1
 1552 0 l 1
 1300 0 l 1
 882 768 l 1
 476 0 l 1
 226 0 l 1
 211 1 l 1
 186 37 l 1
 163 76 l 1
 132 130 l 1
 105 192 l 1
 79 257 l 1
 64 332 l 1
 48 417 l 1
 42 505 l 1
 48 593 l 1
 56 673 l 1
 72 751 l 1
 89 810 l 1
 116 864 l 1
 142 911 l 1
 173 950 l 1
 191 970 l 1
 376 970 l 1
 344 939 l 1
 318 901 l 1
 292 854 l 1
 272 808 l 1
 254 751 l 1
 238 676 l 1
 225 593 l 1
 220 510 l 1
 225 427 l 1
 241 339 l 1
 261 272 l 1
 282 231 l 1
 318 188 l 1xa0
EndSplineSet
Validated: 1
EndChar

StartChar: O
Encoding: 79 79 45
Width: 1388
Flags: W
HStem: 0 213<263 1134> 748 224<487 908>
LayerCount: 2
Fore
SplineSet
1036 972 m 1
 1367 199 l 1
 1235 0 l 1
 168 0 l 1
 31 202 l 1
 350 972 l 1
 1036 972 l 1
263 213 m 1
 1134 213 l 1
 908 748 l 1
 487 748 l 1
 263 213 l 1
EndSplineSet
Validated: 1
EndChar

StartChar: P
Encoding: 80 80 46
Width: 1022
Flags: W
HStem: 0 222<287.809 743> 732 234<371 593>
VStem: 35 223.75<278.381 574.227> 743 224<222 967>
LayerCount: 2
Fore
SplineSet
967 967 m 1
 967 0 l 1
 231 0 l 1
 108.333333333 89.3333333333 43 234 35 434 c 1
 51 648.666666667 130.333333333 826 273 966 c 1
 593 966 l 1
 593 732 l 1
 371 732 l 1
 371 784 l 1
 335 784 l 1
 284.333333333 725.333333333 259 608.666666667 259 434 c 1
 258.833333333 425.916666667 258.75 418.0625 258.75 410.4375 c 0
 258.75 296.0625 277.5 233.25 315 222 c 1
 743 222 l 1
 743 968 l 1
 967 967 l 1
EndSplineSet
Validated: 1
EndChar

StartChar: Q
Encoding: 81 81 47
Width: 1333
Flags: W
HStem: 0 224<252 644> 770 202<252 1073>
VStem: 39 213<224 770> 1073 224<585 770>
LayerCount: 2
Fore
SplineSet
1261 972 m 1
 1297 936 l 1
 1297 585 l 1
 1073 585 l 1
 1073 770 l 1
 252 770 l 1
 252 224 l 1
 941 224 l 1
 644 0 l 1
 112 0 l 1
 39 73 l 1
 39 933 l 1
 78 972 l 1
 1261 972 l 1
EndSplineSet
Validated: 1
EndChar

StartChar: R
Encoding: 82 82 48
Width: 1302
Flags: W
HStem: 0 21G<176 475.79> 0 21G<176 475.79> 737 235<232 776>
LayerCount: 2
Fore
SplineSet
1275 972 m 1xa0
 459 0 l 1
 176 0 l 1
 776 720 l 1
 776 737 l 1
 56 737 l 1
 232 972 l 1
 1275 972 l 1xa0
EndSplineSet
Validated: 1
EndChar

StartChar: S
Encoding: 83 83 49
Width: 1479
Flags: W
HStem: 0 21G<722.569 786.128 1123.98 1429> 0 21G<722.569 786.128 1123.98 1429> 952 20G<171 501.946 1221 1429> 952 20G<171 501.946 1221 1429>
VStem: 1221 208<231 972>
LayerCount: 2
Fore
SplineSet
482 972 m 1xa8
 1221 231 l 1
 1221 972 l 1
 1429 972 l 1
 1429 0 l 1
 1144 0 l 1
 171 972 l 1
 482 972 l 1xa8
90 462 m 5
 846 188 l 5
 779 0 l 5
 20 269 l 5
 90 462 l 5
EndSplineSet
Validated: 1
EndChar

StartChar: T
Encoding: 84 84 50
Width: 1607
Flags: W
HStem: 0 185<639 700 888 952> 952 20G<700 888> 952 20G<700 888>
VStem: 700 188<188 972>
LayerCount: 2
Fore
SplineSet
888 972 m 1xd0
 888 185 l 1
 952 185 l 1
 1283 521 l 1
 1574 521 l 1
 1050 0 l 1
 541 0 l 1
 12 524 l 1
 305 524 l 1
 639 188 l 1
 700 188 l 1
 700 972 l 1
 888 972 l 1xd0
EndSplineSet
Validated: 1
EndChar

StartChar: U
Encoding: 85 85 51
Width: 1421
Flags: W
HStem: 0 210<263 1160> 748 224<871 1160>
VStem: 39 224<210 972> 1160 224<210 748>
LayerCount: 2
Fore
SplineSet
1336 972 m 1
 1384 924 l 1
 1384 50 l 1
 1333 0 l 1
 39 0 l 1
 39 972 l 1
 263 972 l 1
 263 210 l 1
 1160 210 l 1
 1160 748 l 1
 871 748 l 1
 734 563 l 1
 445 563 l 1
 751 972 l 1
 1336 972 l 1
EndSplineSet
Validated: 1
EndChar

StartChar: V
Encoding: 86 86 52
Width: 1261
Flags: W
HStem: 0 21G<538 725> 0 21G<538 725> 952 20G<36 372.77 890.307 1227> 952 20G<36 372.77 890.307 1227>
VStem: 538 187<0 468>
LayerCount: 2
Fore
SplineSet
353 972 m 1xa8
 611 711 l 1
 653 711 l 1
 910 972 l 1
 1227 972 l 1
 725 468 l 1
 725 0 l 1
 538 0 l 1
 538 468 l 1
 36 969 l 1
 353 972 l 1xa8
EndSplineSet
Validated: 1
EndChar

StartChar: W
Encoding: 87 87 53
Width: 1469
Flags: W
HStem: 0 235<241 1248> 748 222<241 1248>
VStem: 21 220<235 748> 1248 193<235 748>
LayerCount: 2
Fore
SplineSet
1427 958 m 1
 1435 942 l 1
 1441 906 l 1
 1441 60 l 1
 1436 29 l 1
 1428 12 l 1
 1408 6 l 1
 1370 0 l 1
 95 0 l 1
 55 4 l 1
 35 15 l 1
 27 35 l 1
 21 65 l 1
 21 906 l 1
 26 936 l 1
 34 958 l 1
 54 968 l 1
 92 970 l 1
 1370 970 l 1
 1410 965 l 1
 1427 958 l 1
1248 235 m 1
 1248 748 l 1
 241 748 l 1
 241 235 l 1
 1248 235 l 1
EndSplineSet
Validated: 1
EndChar

StartChar: X
Encoding: 88 88 54
Width: 1209
Flags: W
HStem: 0 192<315 899> 950 20G<502.886 737.241> 950 20G<502.886 737.241>
LayerCount: 2
Fore
SplineSet
1173 99 m 1xc0
 963 0 l 1
 239 0 l 1
 30 99 l 1
 514 970 l 1
 727 970 l 1
 1173 99 l 1xc0
899 192 m 1
 621 756 l 1
 315 192 l 1
 899 192 l 1
EndSplineSet
Validated: 1
EndChar

StartChar: Y
Encoding: 89 89 55
Width: 1428
Flags: W
HStem: 0 21G<512.899 871.047> 0 21G<512.899 871.047> 864 110<278 388>
LayerCount: 2
Fore
SplineSet
1398 974 m 1xa0
 860 0 l 1
 524 0 l 1
 30 890 l 1
 30 936 l 1
 57 967 l 1
 90 974 l 1
 541 974 l 1
 768 570 l 1
 534 570 l 1
 388 864 l 1
 278 864 l 1
 670 156 l 1
 720 156 l 1
 1178 974 l 1
 1398 974 l 1xa0
EndSplineSet
Validated: 1
EndChar

StartChar: Z
Encoding: 90 90 56
Width: 1293
Flags: W
HStem: -1 226<295 1041> 560 221<577 1041> 948 20G<1041 1265> 948 20G<1041 1265>
VStem: 1041 224<225 560 781 968>
LayerCount: 2
Fore
SplineSet
1265 968 m 1xe8
 1265 -1 l 1
 86 -1 l 1
 36 49 l 1
 36 317 l 1
 295 317 l 1
 295 225 l 1
 1041 225 l 1
 1041 560 l 1
 577 560 l 1
 429 409 l 1
 91 409 l 1
 463 781 l 1
 1041 781 l 1
 1041 968 l 1
 1265 968 l 1xe8
EndSplineSet
Validated: 1
EndChar

StartChar: bracketleft
Encoding: 91 91 57
Width: 1420
Flags: W
HStem: -1 206<264 1178> 390 204<597 1178> 764 204<264 1178>
VStem: 41 223<205 393 563 764> 1178 204<205 390 594 764>
LayerCount: 2
Fore
SplineSet
1382 968 m 1
 1382 -1 l 1
 102 -1 l 1
 41 60 l 1
 41 393 l 1
 264 393 l 1
 264 205 l 1
 1178 205 l 1
 1178 390 l 1
 597 390 l 1
 597 594 l 1
 1178 594 l 1
 1178 764 l 1
 264 764 l 1
 264 563 l 1
 41 563 l 1
 41 918 l 1
 91 968 l 1
 1382 968 l 1
EndSplineSet
Validated: 1
EndChar

StartChar: backslash
Encoding: 92 92 58
Width: 557
Flags: W
LayerCount: 2
Fore
SplineSet
111 550 m 1
 297 404 l 1
 297 0 l 1
 517 0 l 1
 517 402 l 1
 329 550 l 1
 329 978 l 1
 110 977 l 1
 111 550 l 1
EndSplineSet
Validated: 9
EndChar

StartChar: bracketright
Encoding: 93 93 59
Width: 1557
Flags: W
HStem: -1 226<20 1190> 745 223<20 936>
LayerCount: 2
Fore
SplineSet
1064 968 m 1
 1531 -1 l 1
 20 -1 l 1
 20 225 l 1
 1190 225 l 1
 936 745 l 1
 20 745 l 1
 20 968 l 1
 1064 968 l 1
EndSplineSet
Validated: 1
EndChar

StartChar: a
Encoding: 97 97 60
Width: 1686
Flags: W
HStem: 0 21G<44 267 1193.47 1657> 0 21G<44 267 1193.47 1657> 191 225<267 864> 556 225<270 881> 952 20G<44 270 1160.33 1647> 952 20G<44 270 1160.33 1647>
VStem: 44 223<0 191 781 972>
LayerCount: 2
Fore
SplineSet
44 972 m 1x3a
 270 972 l 1
 270 781 l 1
 881 781 l 1
 1193 972 l 1
 1647 972 l 1
 881 556 l 1
 44 556 l 1
 44 972 l 1x3a
44 416 m 1
 906 416 l 1
 1657 0 l 1
 1232 0 l 1
 864 191 l 1
 267 191 l 1
 267 0 l 1
 44 0 l 1xb2
 44 416 l 1
EndSplineSet
Validated: 1
EndChar

StartChar: b
Encoding: 98 98 61
Width: 1566
Flags: W
HStem: -1 215<388 1178> 370 232<480 1113> 748 217<392 1180>
LayerCount: 2
Fore
SplineSet
309 965 m 1
 1259 965 l 1
 1538 650 l 1
 1538 599 l 1
 1292 599 l 1
 1180 748 l 1
 392 748 l 1
 275 599 l 1
 30 599 l 1
 30 650 l 1
 309 965 l 1
480 602 m 1
 1113 602 l 1
 1113 370 l 1
 480 370 l 1
 480 602 l 1
27 343 m 1
 273 343 l 1
 388 214 l 1
 1178 214 l 1
 1291 341 l 1
 1536 341 l 1
 1536 296 l 1
 1257 -1 l 1
 306 -1 l 1
 27 296 l 1
 27 343 l 1
EndSplineSet
Validated: 1
EndChar

StartChar: c
Encoding: 99 99 62
Width: 901
Flags: W
HStem: 0 21G<629 854> 0 21G<629 854>
VStem: 38 225<298 966> 335 222<298 668> 629 225<0 668>
CounterMasks: 1 38
LayerCount: 2
Fore
SplineSet
38 966 m 1x38
 263 966 l 1
 263 298 l 1
 38 298 l 1
 38 966 l 1x38
335 668 m 1
 557 668 l 1
 557 298 l 1
 335 298 l 1
 335 668 l 1
629 668 m 1
 854 668 l 1
 854 0 l 1
 629 0 l 1xb8
 629 668 l 1
EndSplineSet
Validated: 1
EndChar

StartChar: d
Encoding: 100 100 63
Width: 1240
Flags: W
HStem: 0 21G<102 410.962> 0 21G<102 410.962> 370 222<226 430> 744 221<165 753>
LayerCount: 2
Fore
SplineSet
1201 965 m 1xb0
 1198 948 l 1
 394 0 l 1
 102 0 l 1
 430 370 l 1
 74 370 l 1
 226 592 l 1
 623 592 l 1
 753 743 l 1
 22 744 l 1
 165 965 l 1
 1201 965 l 1xb0
EndSplineSet
Validated: 1
EndChar

StartChar: e
Encoding: 101 101 64
Width: 1510
Flags: W
HStem: 0 21G<476.401 754.506 1129 1331> 0 21G<476.401 754.506 1129 1331> 749 224<1101 1129 1331 1480>
VStem: 1129 202<0 749>
LayerCount: 2
Fore
SplineSet
1480 973 m 1xb0
 1480 749 l 1
 1331 749 l 1
 1331 0 l 1
 1129 0 l 1
 1129 749 l 1
 1101 749 l 1
 745 0 l 1
 486 0 l 1
 19 973 l 1
 270 973 l 1
 618 277 l 1
 955 973 l 1
 1480 973 l 1xb0
EndSplineSet
Validated: 1
EndChar

StartChar: f
Encoding: 102 102 65
Width: 1516
Flags: W
HStem: 0 223<261 647 852 1476> 452 218<260 551.676> 947 20G<646.923 852> 947 20G<646.923 852>
VStem: 40 221<223 452> 647 205<223 474 734 967>
LayerCount: 2
Fore
SplineSet
852 967 m 1xec
 852 734 l 1
 977.333333333 754.666666667 1077.33333333 778.666666667 1152 806 c 0
 1226.66666667 833.333333333 1334.66666667 891.333333333 1476 980 c 1
 1476 780 l 1
 1364 705.333333333 1264.33333333 650.166666667 1177 614.5 c 0
 1089.66666667 578.833333333 981.333333333 547.666666667 852 521 c 1
 852 223 l 1
 1476 223 l 1
 1476 0 l 1
 40 0 l 1
 40 669 l 1
 302 670 l 1
 420.666666667 675.333333333 535.333333333 687.333333333 646 706 c 1
 647 967 l 1
 852 967 l 1xec
261 223 m 1
 647 223 l 1
 647 474 l 1
 557 462 463.333333333 454.666666667 366 452 c 1
 260 452 l 1
 261 223 l 1
EndSplineSet
Validated: 1
EndChar

StartChar: g
Encoding: 103 103 66
Width: 1495
Flags: W
HStem: 0 225<249 810> 714 261<436 622> 773 202<622 1090>
VStem: 66 183<225 975>
LayerCount: 2
Fore
SplineSet
1444 975 m 1xb0
 1441 958 l 1
 918 0 l 1
 66 0 l 1
 66 975 l 1
 249 975 l 1
 249 225 l 1
 810 225 l 1
 1090 767 l 1
 1090 773 l 1
 622 773 l 1xb0
 622 714 l 1
 436 714 l 1
 436 975 l 1xd0
 1444 975 l 1xb0
EndSplineSet
Validated: 1
EndChar

StartChar: h
Encoding: 104 104 67
Width: 1570
Flags: W
HStem: 0 225<25 1539> 377 224<285 1279> 751 224<25 1539>
LayerCount: 2
Fore
SplineSet
1539 975 m 1
 1539 751 l 1
 25 751 l 1
 25 975 l 1
 1539 975 l 1
285 601 m 1
 1279 601 l 1
 1279 377 l 1
 285 377 l 1
 285 601 l 1
25 225 m 1
 1539 225 l 1
 1539 0 l 1
 25 0 l 1
 25 225 l 1
EndSplineSet
Validated: 1
EndChar

StartChar: i
Encoding: 105 105 68
Width: 629
Flags: W
HStem: 0 21G<387 572> 0 21G<387 572> 955 20G<311.356 572>
VStem: 387 185<0 730>
LayerCount: 2
Fore
SplineSet
572 975 m 1xb0
 572 0 l 1
 387 0 l 1
 387 730 l 1
 190 534 l 1
 47 678 l 2
 45 683.333333333 47.6666666667 688.666666667 55 694 c 2
 331 975 l 1
 572 975 l 1xb0
EndSplineSet
Validated: 1
EndChar

StartChar: j
Encoding: 106 106 69
Width: 1461
Flags: W
HStem: 0 219<52 824> 381 219<56 485.797> 952 20G<1144 1426> 952 20G<1144 1426>
LayerCount: 2
Fore
SplineSet
1426 971 m 1xe0
 960 0 l 1
 52 0 l 1
 52 219 l 1
 824 219 l 1
 960 523 l 1
 890.666666667 482.333333333 826.666666667 454.666666667 768 440 c 0
 709.333333333 425.333333333 642 412.5 566 401.5 c 0
 490 390.5 366.666666667 383.666666667 196 381 c 1
 56 381 l 1
 56 600 l 1
 200 600 l 1
 368 610.666666667 476 619.333333333 524 626 c 0
 572 632.666666667 637.333333333 648.333333333 720 673 c 1
 821.333333333 710.333333333 904 746 968 780 c 0
 1032 814 1104 878 1184 972 c 1
 1426 971 l 1xe0
EndSplineSet
Validated: 1
EndChar

StartChar: k
Encoding: 107 107 70
Width: 1521
Flags: W
HStem: 0 224<63 1243> 748 223<63 1243>
VStem: 1243 221<224 748>
LayerCount: 2
Fore
SplineSet
1437 971 m 1
 1449.66666667 965.666666667 1458.66666667 956.333333333 1464 943 c 1
 1464 33 l 1
 1459.33333333 17 1448.66666667 6 1432 0 c 1
 63 0 l 1
 63 224 l 1
 1243 224 l 1
 1243 748 l 1
 63 748 l 1
 63 971 l 1
 1437 971 l 1
EndSplineSet
Validated: 1
EndChar

StartChar: l
Encoding: 108 108 71
Width: 1007
Flags: W
HStem: -1 21G<653.492 944> -1 21G<653.492 944> 956 20G<746 944>
VStem: 746 198<222 976>
LayerCount: 2
Fore
SplineSet
944 976 m 1xb0
 944 -1 l 1
 684 -1 l 1
 54 412 l 1
 171 595 l 1
 746 222 l 1
 746 976 l 1
 944 976 l 1xb0
EndSplineSet
Validated: 1
EndChar

StartChar: m
Encoding: 109 109 72
Width: 1000
Flags: W
HStem: 0 224<409 826> 711 261<686 894>
LayerCount: 2
Fore
SplineSet
894 972 m 1
 894 711 l 1
 686 709 l 1
 409 224 l 1
 961 224 l 1
 826 0 l 1
 31 0 l 1
 566 972 l 1
 894 972 l 1
EndSplineSet
Validated: 1
EndChar

StartChar: n
Encoding: 110 110 73
Width: 1582
Flags: W
HStem: 0 21G<211 486.573 1289.11 1552> 0 21G<211 486.573 1289.11 1552> 952 20G<173 376 740.54 1019.19> 952 20G<173 376 740.54 1019.19>
LayerCount: 2
Fore
SplineSet
318 188 m 1xa0
 342 190 l 1
 751 972 l 1
 1008 972 l 1
 1552 0 l 1
 1300 0 l 1
 882 768 l 1
 476 0 l 1
 226 0 l 1
 211 1 l 1
 186 37 l 1
 163 76 l 1
 132 130 l 1
 105 192 l 1
 79 257 l 1
 64 332 l 1
 48 417 l 1
 42 505 l 1
 48 593 l 1
 56 673 l 1
 72 751 l 1
 89 810 l 1
 116 864 l 1
 142 911 l 1
 173 950 l 1
 191 970 l 1
 376 970 l 1
 344 939 l 1
 318 901 l 1
 292 854 l 1
 272 808 l 1
 254 751 l 1
 238 676 l 1
 225 593 l 1
 220 510 l 1
 225 427 l 1
 241 339 l 1
 261 272 l 1
 282 231 l 1
 318 188 l 1xa0
EndSplineSet
Validated: 1
EndChar

StartChar: o
Encoding: 111 111 74
Width: 1388
Flags: W
HStem: 0 213<263 1134> 748 224<487 908>
LayerCount: 2
Fore
SplineSet
1036 972 m 1
 1367 199 l 1
 1235 0 l 1
 168 0 l 1
 31 202 l 1
 350 972 l 1
 1036 972 l 1
263 213 m 1
 1134 213 l 1
 908 748 l 1
 487 748 l 1
 263 213 l 1
EndSplineSet
Validated: 1
EndChar

StartChar: p
Encoding: 112 112 75
Width: 1022
Flags: W
HStem: 0 222<287.809 743> 732 234<371 593>
VStem: 35 223.75<278.381 574.227> 743 224<222 967>
LayerCount: 2
Fore
SplineSet
967 967 m 1
 967 0 l 1
 231 0 l 1
 108.333333333 89.3333333333 43 234 35 434 c 1
 51 648.666666667 130.333333333 826 273 966 c 1
 593 966 l 1
 593 732 l 1
 371 732 l 1
 371 784 l 1
 335 784 l 1
 284.333333333 725.333333333 259 608.666666667 259 434 c 1
 258.833333333 425.916666667 258.75 418.0625 258.75 410.4375 c 0
 258.75 296.0625 277.5 233.25 315 222 c 1
 743 222 l 1
 743 968 l 1
 967 967 l 1
EndSplineSet
Validated: 1
EndChar

StartChar: q
Encoding: 113 113 76
Width: 1333
Flags: W
HStem: 0 224<252 644> 770 202<252 1073>
VStem: 39 213<224 770> 1073 224<585 770>
LayerCount: 2
Fore
SplineSet
1261 972 m 1
 1297 936 l 1
 1297 585 l 1
 1073 585 l 1
 1073 770 l 1
 252 770 l 1
 252 224 l 1
 941 224 l 1
 644 0 l 1
 112 0 l 1
 39 73 l 1
 39 933 l 1
 78 972 l 1
 1261 972 l 1
EndSplineSet
Validated: 1
EndChar

StartChar: r
Encoding: 114 114 77
Width: 1302
Flags: W
HStem: 0 21G<176 475.79> 0 21G<176 475.79> 737 235<232 776>
LayerCount: 2
Fore
SplineSet
1275 972 m 1xa0
 459 0 l 1
 176 0 l 1
 776 720 l 1
 776 737 l 1
 56 737 l 1
 232 972 l 1
 1275 972 l 1xa0
EndSplineSet
Validated: 1
EndChar

StartChar: s
Encoding: 115 115 78
Width: 1479
Flags: W
HStem: 0 21G<722.569 786.128 1123.98 1429> 0 21G<722.569 786.128 1123.98 1429> 952 20G<171 501.946 1221 1429> 952 20G<171 501.946 1221 1429>
VStem: 1221 208<231 972>
LayerCount: 2
Fore
SplineSet
482 972 m 1xa8
 1221 231 l 1
 1221 972 l 1
 1429 972 l 1
 1429 0 l 1
 1144 0 l 1
 171 972 l 1
 482 972 l 1xa8
90 462 m 1
 846 188 l 1
 779 0 l 1
 20 269 l 1
 90 462 l 1
EndSplineSet
Validated: 1
EndChar

StartChar: t
Encoding: 116 116 79
Width: 1607
Flags: W
HStem: 0 185<639 700 888 952> 952 20G<700 888> 952 20G<700 888>
VStem: 700 188<188 972>
LayerCount: 2
Fore
SplineSet
888 972 m 1xd0
 888 185 l 1
 952 185 l 1
 1283 521 l 1
 1574 521 l 1
 1050 0 l 1
 541 0 l 1
 12 524 l 1
 305 524 l 1
 639 188 l 1
 700 188 l 1
 700 972 l 1
 888 972 l 1xd0
EndSplineSet
Validated: 1
EndChar

StartChar: u
Encoding: 117 117 80
Width: 1421
Flags: W
HStem: 0 210<263 1160> 748 224<871 1160>
VStem: 39 224<210 972> 1160 224<210 748>
LayerCount: 2
Fore
SplineSet
1336 972 m 1
 1384 924 l 1
 1384 50 l 1
 1333 0 l 1
 39 0 l 1
 39 972 l 1
 263 972 l 1
 263 210 l 1
 1160 210 l 1
 1160 748 l 1
 871 748 l 1
 734 563 l 1
 445 563 l 1
 751 972 l 1
 1336 972 l 1
EndSplineSet
Validated: 1
EndChar

StartChar: v
Encoding: 118 118 81
Width: 1261
Flags: W
HStem: 0 21G<538 725> 0 21G<538 725> 952 20G<36 372.77 890.307 1227> 952 20G<36 372.77 890.307 1227>
VStem: 538 187<0 468>
LayerCount: 2
Fore
SplineSet
353 972 m 1xa8
 611 711 l 1
 653 711 l 1
 910 972 l 1
 1227 972 l 1
 725 468 l 1
 725 0 l 1
 538 0 l 1
 538 468 l 1
 36 969 l 1
 353 972 l 1xa8
EndSplineSet
Validated: 1
EndChar

StartChar: w
Encoding: 119 119 82
Width: 1469
Flags: W
HStem: 0 235<241 1248> 748 222<241 1248>
VStem: 21 220<235 748> 1248 193<235 748>
LayerCount: 2
Fore
SplineSet
1427 958 m 1
 1435 942 l 1
 1441 906 l 1
 1441 60 l 1
 1436 29 l 1
 1428 12 l 1
 1408 6 l 1
 1370 0 l 1
 95 0 l 1
 55 4 l 1
 35 15 l 1
 27 35 l 1
 21 65 l 1
 21 906 l 1
 26 936 l 1
 34 958 l 1
 54 968 l 1
 92 970 l 1
 1370 970 l 1
 1410 965 l 1
 1427 958 l 1
1248 235 m 1
 1248 748 l 1
 241 748 l 1
 241 235 l 1
 1248 235 l 1
EndSplineSet
Validated: 1
EndChar

StartChar: x
Encoding: 120 120 83
Width: 1209
Flags: W
HStem: 0 192<315 899> 950 20G<502.886 737.241> 950 20G<502.886 737.241>
LayerCount: 2
Fore
SplineSet
1173 99 m 1xc0
 963 0 l 1
 239 0 l 1
 30 99 l 1
 514 970 l 1
 727 970 l 1
 1173 99 l 1xc0
899 192 m 1
 621 756 l 1
 315 192 l 1
 899 192 l 1
EndSplineSet
Validated: 1
EndChar

StartChar: y
Encoding: 121 121 84
Width: 1428
Flags: W
HStem: 0 21G<512.899 871.047> 0 21G<512.899 871.047> 864 110<278 388>
LayerCount: 2
Fore
SplineSet
1398 974 m 1xa0
 860 0 l 1
 524 0 l 1
 30 890 l 1
 30 936 l 1
 57 967 l 1
 90 974 l 1
 541 974 l 1
 768 570 l 1
 534 570 l 1
 388 864 l 1
 278 864 l 1
 670 156 l 1
 720 156 l 1
 1178 974 l 1
 1398 974 l 1xa0
EndSplineSet
Validated: 1
EndChar

StartChar: z
Encoding: 122 122 85
Width: 1293
Flags: W
HStem: -1 226<295 1041> 560 221<577 1041> 948 20G<1041 1265> 948 20G<1041 1265>
VStem: 1041 224<225 560 781 968>
LayerCount: 2
Fore
SplineSet
1265 968 m 1xe8
 1265 -1 l 1
 86 -1 l 1
 36 49 l 1
 36 317 l 1
 295 317 l 1
 295 225 l 1
 1041 225 l 1
 1041 560 l 1
 577 560 l 1
 429 409 l 1
 91 409 l 1
 463 781 l 1
 1041 781 l 1
 1041 968 l 1
 1265 968 l 1xe8
EndSplineSet
Validated: 1
EndChar

StartChar: braceleft
Encoding: 123 123 86
Width: 1648
Flags: W
HStem: 755 217<622 1010>
LayerCount: 2
Fore
SplineSet
99 227 m 1
 163 0 l 1
 1471 0 l 1
 1532 227 l 1
 99 227 l 1
94 260 m 1
 30 445 l 1
 127 492 l 1
 210 552 l 1
 292 625 l 1
 361 700 l 1
 408 786 l 1
 443 873 l 1
 470 972 l 1
 1183 972 l 1
 1203 895 l 1
 1238 797 l 1
 1285 705 l 1
 1354 620 l 1
 1437 548 l 1
 1516 497 l 1
 1614 445 l 1
 1543 260 l 1
 1423 319 l 1
 1303 397 l 1
 1179 504 l 1
 1100 589 l 1
 1046 673 l 1
 1010 755 l 1
 622 755 l 1
 574 658 l 1
 524 591 l 1
 440 497 l 1
 330 405 l 1
 210 324 l 1
 94 260 l 1
EndSplineSet
Validated: 9
EndChar

StartChar: braceright
Encoding: 125 125 87
Width: 1743
Flags: W
HStem: -1 299<25 249 360 547> -1 226<547 1117> 708 260<25 249 360 547> 773 195<547 1377>
VStem: 25 224<-1 298 708 968> 360 187<225 298 708 773>
LayerCount: 2
Fore
SplineSet
1701 968 m 1x1c
 1249 -1 l 1x5c
 360 -1 l 1
 360 298 l 1
 547 298 l 1x8c
 547 225 l 1
 1117 225 l 1
 1363 747 l 1
 1377 770 l 1
 1377 773 l 1
 547 773 l 1x5c
 547 708 l 1
 360 708 l 1
 360 968 l 1x2c
 1701 968 l 1x1c
249 968 m 1x2c
 249 708 l 1
 25 708 l 1
 25 968 l 1
 249 968 l 1x2c
25 298 m 1x8c
 249 298 l 1
 249 -1 l 1
 25 -1 l 1
 25 298 l 1x8c
EndSplineSet
Validated: 1
EndChar

StartChar: Ccedilla
Encoding: 199 -1 88
Width: 992
Flags: W
LayerCount: 2
Fore
SplineSet
872 976 m 1
 872 473 l 1
 519 473 l 1
 22 976 l 1
 305 976 l 1
 648 624 l 1
 648 976 l 1
 872 976 l 1
EndSplineSet
Validated: 1
EndChar

StartChar: ntilde
Encoding: 241 -1 89
Width: 600
Flags: W
LayerCount: 2
Fore
SplineSet
392 1085 m 1
 512 996 l 1
 332 996 l 1
 332 385 l 1
 110 598 l 1
 110 1085 l 1
 392 1085 l 1
EndSplineSet
Validated: 1
EndChar

StartChar: registered
Encoding: 198 198 90
Width: 1420
Flags: W
LayerCount: 2
Fore
SplineSet
1382 968 m 1
 1382 -1 l 1
 102 -1 l 1
 41 60 l 1
 41 393 l 1
 264 393 l 1
 264 205 l 1
 1178 205 l 1
 1178 390 l 1
 597 390 l 1
 597 594 l 1
 1178 594 l 1
 1178 764 l 1
 264 764 l 1
 264 563 l 1
 41 563 l 1
 41 918 l 1
 91 968 l 1
 1382 968 l 1
EndSplineSet
Validated: 1
EndChar

StartChar: trademark
Encoding: 216 216 91
Width: 1020
Flags: W
LayerCount: 2
Fore
SplineSet
911 966 m 1
 972 905 l 1
 972 61 l 1
 911 0 l 1
 561 0 l 1
 561 223 l 1
 749 223 l 1
 749 743 l 1
 561 743 l 1
 561 966 l 1
 911 966 l 1
464 966 m 1
 464 743 l 1
 277 743 l 1
 277 223 l 1
 464 223 l 1
 464 0 l 1
 115 0 l 1
 53 61 l 1
 53 905 l 1
 115 966 l 1
 464 966 l 1
EndSplineSet
Validated: 1
EndChar

StartChar: summation
Encoding: 260 339 92
Width: 1648
Flags: W
HStem: 755 217<622 1010>
LayerCount: 2
Fore
SplineSet
99 227 m 1
 163 0 l 1
 1471 0 l 1
 1532 227 l 1
 99 227 l 1
94 260 m 1
 30 445 l 1
 127 492 l 1
 210 552 l 1
 292 625 l 1
 361 700 l 1
 408 786 l 1
 443 873 l 1
 470 972 l 1
 1183 972 l 1
 1203 895 l 1
 1238 797 l 1
 1285 705 l 1
 1354 620 l 1
 1437 548 l 1
 1516 497 l 1
 1614 445 l 1
 1543 260 l 1
 1423 319 l 1
 1303 397 l 1
 1179 504 l 1
 1100 589 l 1
 1046 673 l 1
 1010 755 l 1
 622 755 l 1
 574 658 l 1
 524 591 l 1
 440 497 l 1
 330 405 l 1
 210 324 l 1
 94 260 l 1
EndSplineSet
Validated: 9
EndChar

StartChar: uni0410
Encoding: 261 1040 93
Width: 1686
Flags: W
HStem: 0 21G<44 267 1193.47 1657> 0 21G<44 267 1193.47 1657> 191 225<267 864> 556 225<270 881> 952 20G<44 270 1160.33 1647> 952 20G<44 270 1160.33 1647>
VStem: 44 223<0 191 781 972>
LayerCount: 2
Fore
SplineSet
44 972 m 1x3a
 270 972 l 1
 270 781 l 1
 881 781 l 1
 1193 972 l 1
 1647 972 l 1
 881 556 l 1
 44 556 l 1
 44 972 l 1x3a
44 416 m 1
 906 416 l 1
 1657 0 l 1
 1232 0 l 1
 864 191 l 1
 267 191 l 1
 267 0 l 1
 44 0 l 1xb2
 44 416 l 1
EndSplineSet
Validated: 1
EndChar

StartChar: uni0411
Encoding: 262 1041 94
Width: 1566
Flags: W
HStem: -1 215<388 1178> 370 232<480 1113> 748 217<392 1180>
LayerCount: 2
Fore
SplineSet
309 965 m 1
 1259 965 l 1
 1538 650 l 1
 1538 599 l 1
 1292 599 l 1
 1180 748 l 1
 392 748 l 1
 275 599 l 1
 30 599 l 1
 30 650 l 1
 309 965 l 1
480 602 m 1
 1113 602 l 1
 1113 370 l 1
 480 370 l 1
 480 602 l 1
27 343 m 1
 273 343 l 1
 388 214 l 1
 1178 214 l 1
 1291 341 l 1
 1536 341 l 1
 1536 296 l 1
 1257 -1 l 1
 306 -1 l 1
 27 296 l 1
 27 343 l 1
EndSplineSet
Validated: 1
EndChar

StartChar: uni0412
Encoding: 263 1042 95
Width: 1261
Flags: W
HStem: 0 21G<538 725> 0 21G<538 725> 952 20G<36 372.77 890.307 1227> 952 20G<36 372.77 890.307 1227>
VStem: 538 187<0 468>
LayerCount: 2
Fore
SplineSet
353 972 m 1xa8
 611 711 l 1
 653 711 l 1
 910 972 l 1
 1227 972 l 1
 725 468 l 1
 725 0 l 1
 538 0 l 1
 538 468 l 1
 36 969 l 1
 353 972 l 1xa8
EndSplineSet
Validated: 1
EndChar

StartChar: uni0413
Encoding: 264 1043 96
Width: 1495
Flags: W
HStem: 0 225<249 810> 714 261<436 622> 773 202<622 1090>
VStem: 66 183<225 975>
LayerCount: 2
Fore
SplineSet
1444 975 m 1xb0
 1441 958 l 1
 918 0 l 1
 66 0 l 1
 66 975 l 1
 249 975 l 1
 249 225 l 1
 810 225 l 1
 1090 767 l 1
 1090 773 l 1
 622 773 l 1xb0
 622 714 l 1
 436 714 l 1
 436 975 l 1xd0
 1444 975 l 1xb0
EndSplineSet
Validated: 1
EndChar

StartChar: uni0414
Encoding: 265 1044 97
Width: 1240
Flags: W
HStem: 0 21G<102 410.962> 0 21G<102 410.962> 370 222<226 430> 744 221<165 753>
LayerCount: 2
Fore
SplineSet
1201 965 m 1xb0
 1198 948 l 1
 394 0 l 1
 102 0 l 1
 430 370 l 1
 74 370 l 1
 226 592 l 1
 623 592 l 1
 753 743 l 1
 22 744 l 1
 165 965 l 1
 1201 965 l 1xb0
EndSplineSet
Validated: 1
EndChar

StartChar: uni0415
Encoding: 266 1045 98
Width: 1510
Flags: W
HStem: 0 21G<512.899 871.047 1129 1331> 0 21G<512.899 871.047 1129 1331> 749 224<1331 1480> 864 110<278 388>
VStem: 1129 202<0 486.758>
LayerCount: 2
Fore
SplineSet
1480 973 m 1x28
 1480 749 l 1
 1331 749 l 1x28
 1331 0 l 1
 1129 0 l 1
 1129 484 l 1
 1128.86613363 486.757647137 l 1
 860 0 l 1
 524 0 l 1
 30 890 l 1
 30 936 l 1
 57 967 l 1
 90 974 l 1
 541 974 l 1
 768 570 l 1
 534 570 l 1
 388 864 l 1
 278 864 l 1
 670 156 l 1
 720 156 l 1
 1178 974 l 1x98
 1480 973 l 1x28
EndSplineSet
Validated: 1
EndChar

StartChar: uni042D
Encoding: 267 1069 99
Width: 1510
Flags: W
HStem: 0 21G<476.401 754.506 1129 1331> 0 21G<476.401 754.506 1129 1331> 749 224<1101 1129 1331 1480>
VStem: 1129 202<0 749>
LayerCount: 2
Fore
SplineSet
1480 973 m 1xb0
 1480 749 l 1
 1331 749 l 1
 1331 0 l 1
 1129 0 l 1
 1129 749 l 1
 1101 749 l 1
 745 0 l 1
 486 0 l 1
 19 973 l 1
 270 973 l 1
 618 277 l 1
 955 973 l 1
 1480 973 l 1xb0
EndSplineSet
Validated: 1
EndChar

StartChar: uni042C
Encoding: 268 1068 100
Width: 600
Flags: W
HStem: 996 89<332 392>
VStem: 110 222<598 996>
LayerCount: 2
Fore
SplineSet
392 1085 m 1
 512 996 l 1
 332 996 l 1
 332 385 l 1
 110 598 l 1
 110 1085 l 1
 392 1085 l 1
EndSplineSet
Validated: 1
EndChar

StartChar: uni042A
Encoding: 269 1066 101
Width: 992
Flags: W
HStem: 956 20G<22 324.489 648 872>
VStem: 648 224<624 976>
LayerCount: 2
Fore
SplineSet
872 976 m 1
 872 473 l 1
 519 473 l 1
 22 976 l 1
 305 976 l 1
 648 624 l 1
 648 976 l 1
 872 976 l 1
EndSplineSet
Validated: 1
EndChar

StartChar: uni042B
Encoding: 270 1067 102
Width: 1428
Flags: W
HStem: 0 21G<512.899 871.047> 0 21G<512.899 871.047> 864 110<278 388>
LayerCount: 2
Fore
SplineSet
1398 974 m 1xa0
 860 0 l 1
 524 0 l 1
 30 890 l 1
 30 936 l 1
 57 967 l 1
 90 974 l 1
 541 974 l 1
 768 570 l 1
 534 570 l 1
 388 864 l 1
 278 864 l 1
 670 156 l 1
 720 156 l 1
 1178 974 l 1
 1398 974 l 1xa0
EndSplineSet
Validated: 1
EndChar

StartChar: uni0421
Encoding: 271 1057 103
Width: 1479
Flags: W
HStem: 0 21G<722.569 786.128 1123.98 1429> 0 21G<722.569 786.128 1123.98 1429> 952 20G<171 501.946 1221 1429> 952 20G<171 501.946 1221 1429>
VStem: 1221 208<231 972>
LayerCount: 2
Fore
SplineSet
482 972 m 1xa8
 1221 231 l 1
 1221 972 l 1
 1429 972 l 1
 1429 0 l 1
 1144 0 l 1
 171 972 l 1
 482 972 l 1xa8
90 462 m 1
 846 188 l 1
 779 0 l 1
 20 269 l 1
 90 462 l 1
EndSplineSet
Validated: 1
EndChar

StartChar: uni0422
Encoding: 272 1058 104
Width: 1607
Flags: W
HStem: 0 185<639 700 888 952> 952 20G<700 888> 952 20G<700 888>
VStem: 700 188<188 972>
LayerCount: 2
Fore
SplineSet
888 972 m 1xd0
 888 185 l 1
 952 185 l 1
 1283 521 l 1
 1574 521 l 1
 1050 0 l 1
 541 0 l 1
 12 524 l 1
 305 524 l 1
 639 188 l 1
 700 188 l 1
 700 972 l 1
 888 972 l 1xd0
EndSplineSet
Validated: 1
EndChar

StartChar: uni0424
Encoding: 273 1060 105
Width: 1516
Flags: W
HStem: 0 223<261 647 852 1476> 452 218<260 551.676> 947 20G<646.923 852> 947 20G<646.923 852>
VStem: 40 221<223 452> 647 205<223 474 734 967>
LayerCount: 2
Fore
SplineSet
852 967 m 1xec
 852 734 l 1
 977.333333333 754.666666667 1077.33333333 778.666666667 1152 806 c 0
 1226.66666667 833.333333333 1334.66666667 891.333333333 1476 980 c 1
 1476 780 l 1
 1364 705.333333333 1264.33333333 650.166666667 1177 614.5 c 0
 1089.66666667 578.833333333 981.333333333 547.666666667 852 521 c 1
 852 223 l 1
 1476 223 l 1
 1476 0 l 1
 40 0 l 1
 40 669 l 1
 302 670 l 1
 420.666666667 675.333333333 535.333333333 687.333333333 646 706 c 1
 647 967 l 1
 852 967 l 1xec
261 223 m 1
 647 223 l 1
 647 474 l 1
 557 462 463.333333333 454.666666667 366 452 c 1
 260 452 l 1
 261 223 l 1
EndSplineSet
Validated: 1
EndChar

StartChar: uni0425
Encoding: 274 1061 106
Width: 1161
Flags: W
HStem: -1 21G<36 309.904 902 1126> -1 21G<36 309.904 902 1126> 373 224<556 902> 948 20G<902 1126> 948 20G<902 1126>
VStem: 902 224<-1 373 597 968>
LayerCount: 2
Fore
SplineSet
1126 968 m 1xb4
 1126 -1 l 1
 902 -1 l 1
 902 373 l 1
 556 373 l 1
 296 -1 l 1
 36 -1 l 1
 450 597 l 1
 902 597 l 1
 902 968 l 1
 1126 968 l 1xb4
EndSplineSet
Validated: 1
EndChar

StartChar: uni0427
Encoding: 275 1063 107
Width: 1557
Flags: W
HStem: -1 226<20 1190> 745 223<20 936>
LayerCount: 2
Fore
SplineSet
1064 968 m 1
 1531 -1 l 1
 20 -1 l 1
 20 225 l 1
 1190 225 l 1
 936 745 l 1
 20 745 l 1
 20 968 l 1
 1064 968 l 1
EndSplineSet
Validated: 1
EndChar

StartChar: uni0428
Encoding: 276 1064 108
Width: 1743
Flags: W
HStem: -1 299<25 249 360 547> -1 226<547 1117> 708 260<25 249 360 547> 773 195<547 1377>
VStem: 25 224<-1 298 708 968> 360 187<225 298 708 773>
LayerCount: 2
Fore
SplineSet
1701 968 m 1x1c
 1249 -1 l 1x5c
 360 -1 l 1
 360 298 l 1
 547 298 l 1x8c
 547 225 l 1
 1117 225 l 1
 1363 747 l 1
 1377 770 l 1
 1377 773 l 1
 547 773 l 1x5c
 547 708 l 1
 360 708 l 1
 360 968 l 1x2c
 1701 968 l 1x1c
249 968 m 1x2c
 249 708 l 1
 25 708 l 1
 25 968 l 1
 249 968 l 1x2c
25 298 m 1x8c
 249 298 l 1
 249 -1 l 1
 25 -1 l 1
 25 298 l 1x8c
EndSplineSet
Validated: 1
EndChar

StartChar: uni0429
Encoding: 277 1065 109
Width: 1743
Flags: W
HStem: -138 89<1414 1474> -1 299<25 249 360 547> -1 226<547 1117> 708 260<25 249 360 547> 773 195<547 1377>
VStem: 25 224<-1 298 708 968> 360 187<225 298 708 773> 1474 222<-49 280>
LayerCount: 2
Fore
SplineSet
1414 -138 m 1x87
 1294 -49 l 1
 1474 -49 l 1
 1478 160 l 5
 1696 652 l 5
 1696 -138 l 1
 1414 -138 l 1x87
1701 968 m 1x8f
 1249 -1 l 1xaf
 360 -1 l 1
 360 298 l 1
 547 298 l 1xc7
 547 225 l 1
 1117 225 l 1
 1363 747 l 1
 1377 770 l 1
 1377 773 l 1
 547 773 l 1xaf
 547 708 l 1
 360 708 l 1
 360 968 l 1x97
 1701 968 l 1x8f
249 968 m 1x97
 249 708 l 1
 25 708 l 1
 25 968 l 1
 249 968 l 1x97
25 298 m 1xc7
 249 298 l 1
 249 -1 l 1
 25 -1 l 1
 25 298 l 1xc7
EndSplineSet
Validated: 1
EndChar

StartChar: uni0417
Encoding: 278 1047 110
Width: 1293
Flags: W
HStem: -1 226<295 1041> 560 221<577 1041> 948 20G<1041 1265> 948 20G<1041 1265>
VStem: 1041 224<225 560 781 968>
LayerCount: 2
Fore
SplineSet
1265 968 m 1xe8
 1265 -1 l 1
 86 -1 l 1
 36 49 l 1
 36 317 l 1
 295 317 l 1
 295 225 l 1
 1041 225 l 1
 1041 560 l 1
 577 560 l 1
 429 409 l 1
 91 409 l 1
 463 781 l 1
 1041 781 l 1
 1041 968 l 1
 1265 968 l 1xe8
EndSplineSet
Validated: 1
EndChar

StartChar: uni0418
Encoding: 279 1048 111
Width: 629
Flags: W
HStem: 0 21G<387 572> 0 21G<387 572> 955 20G<311.356 572>
VStem: 387 185<0 730>
LayerCount: 2
Fore
SplineSet
572 975 m 1xb0
 572 0 l 1
 387 0 l 1
 387 730 l 1
 190 534 l 1
 47 678 l 2
 45 683.333333333 47.6666666667 688.666666667 55 694 c 2
 331 975 l 1
 572 975 l 1xb0
EndSplineSet
Validated: 1
EndChar

StartChar: uni0419
Encoding: 280 1049 112
Width: 883
Flags: W
HStem: 0 21G<617 802> 0 21G<617 802>
VStem: 617 185<0 438>
LayerCount: 2
Fore
SplineSet
48 694 m 1x20
 137 574 l 1
 137 764 l 1
 748 764 l 1
 535 976 l 1
 48 976 l 1
 48 694 l 1x20
802 683 m 1
 802 0 l 1
 617 0 l 1xa0
 617 438 l 1
 420 242 l 1
 277 386 l 2
 274.405273438 388.594726562 277.072265625 393.927734375 285 402 c 2
 561 683 l 1
 802 683 l 1
EndSplineSet
Validated: 524297
EndChar

StartChar: uni041A
Encoding: 281 1050 113
Width: 1521
Flags: W
HStem: 0 224<63 1243> 748 223<63 1243>
VStem: 1243 221<224 748>
LayerCount: 2
Fore
SplineSet
1437 971 m 1
 1449.66666667 965.666666667 1458.66666667 956.333333333 1464 943 c 1
 1464 33 l 1
 1459.33333333 17 1448.66666667 6 1432 0 c 1
 63 0 l 1
 63 224 l 1
 1243 224 l 1
 1243 748 l 1
 63 748 l 1
 63 971 l 1
 1437 971 l 1
EndSplineSet
Validated: 1
EndChar

StartChar: uni041B
Encoding: 282 1051 114
Width: 1007
Flags: W
HStem: -1 21G<653.492 944> -1 21G<653.492 944> 956 20G<746 944>
VStem: 746 198<222 976>
LayerCount: 2
Fore
SplineSet
944 976 m 1xb0
 944 -1 l 1
 684 -1 l 1
 54 412 l 1
 171 595 l 1
 746 222 l 1
 746 976 l 1
 944 976 l 1xb0
EndSplineSet
Validated: 1
EndChar

StartChar: uni041C
Encoding: 283 1052 115
Width: 1000
Flags: W
HStem: 0 224<409 826> 711 261<686 894>
LayerCount: 2
Fore
SplineSet
894 972 m 1
 894 711 l 1
 686 709 l 1
 409 224 l 1
 961 224 l 1
 826 0 l 1
 31 0 l 1
 566 972 l 1
 894 972 l 1
EndSplineSet
Validated: 1
EndChar

StartChar: uni041D
Encoding: 284 1053 116
Width: 1582
Flags: W
HStem: 0 21G<211 486.573 1289.11 1552> 0 21G<211 486.573 1289.11 1552> 952 20G<173 376 740.54 1019.19> 952 20G<173 376 740.54 1019.19>
LayerCount: 2
Fore
SplineSet
318 188 m 1xa0
 342 190 l 1
 751 972 l 1
 1008 972 l 1
 1552 0 l 1
 1300 0 l 1
 882 768 l 1
 476 0 l 1
 226 0 l 1
 211 1 l 1
 186 37 l 1
 163 76 l 1
 132 130 l 1
 105 192 l 1
 79 257 l 1
 64 332 l 1
 48 417 l 1
 42 505 l 1
 48 593 l 1
 56 673 l 1
 72 751 l 1
 89 810 l 1
 116 864 l 1
 142 911 l 1
 173 950 l 1
 191 970 l 1
 376 970 l 1
 344 939 l 1
 318 901 l 1
 292 854 l 1
 272 808 l 1
 254 751 l 1
 238 676 l 1
 225 593 l 1
 220 510 l 1
 225 427 l 1
 241 339 l 1
 261 272 l 1
 282 231 l 1
 318 188 l 1xa0
EndSplineSet
Validated: 1
EndChar

StartChar: uni041E
Encoding: 285 1054 117
Width: 1388
Flags: W
HStem: 0 213<263 1134> 748 224<487 908>
LayerCount: 2
Fore
SplineSet
1036 972 m 1
 1367 199 l 1
 1235 0 l 1
 168 0 l 1
 31 202 l 1
 350 972 l 1
 1036 972 l 1
263 213 m 1
 1134 213 l 1
 908 748 l 1
 487 748 l 1
 263 213 l 1
EndSplineSet
Validated: 1
EndChar

StartChar: uni041F
Encoding: 286 1055 118
Width: 1022
Flags: W
HStem: 0 222<287.809 743> 732 234<371 593>
VStem: 35 223.75<278.381 574.227> 743 224<222 967>
LayerCount: 2
Fore
SplineSet
967 967 m 1
 967 0 l 1
 231 0 l 1
 108.333333333 89.3333333333 43 234 35 434 c 1
 51 648.666666667 130.333333333 826 273 966 c 1
 593 966 l 1
 593 732 l 1
 371 732 l 1
 371 784 l 1
 335 784 l 1
 284.333333333 725.333333333 259 608.666666667 259 434 c 1
 258.833333333 425.916666667 258.75 418.0625 258.75 410.4375 c 0
 258.75 296.0625 277.5 233.25 315 222 c 1
 743 222 l 1
 743 968 l 1
 967 967 l 1
EndSplineSet
Validated: 1
EndChar

StartChar: uni0420
Encoding: 287 1056 119
Width: 1302
Flags: W
HStem: 0 21G<176 475.79> 0 21G<176 475.79> 737 235<232 776>
LayerCount: 2
Fore
SplineSet
1275 972 m 1xa0
 459 0 l 1
 176 0 l 1
 776 720 l 1
 776 737 l 1
 56 737 l 1
 232 972 l 1
 1275 972 l 1xa0
EndSplineSet
Validated: 1
EndChar

StartChar: uni0426
Encoding: 288 1062 120
Width: 1607
Flags: W
HStem: 0 185<639 700 888 952> 952 20G<700 888> 952 20G<700 888>
VStem: 700 188<188 341 621 972>
LayerCount: 2
Fore
SplineSet
888 621 m 1xd0
 890 621 l 1
 1221 962 l 1
 1512 962 l 1
 888 341 l 1
 888 185 l 1
 952 185 l 1
 1283 521 l 1
 1574 521 l 1
 1050 0 l 1
 541 0 l 1
 12 524 l 1
 305 524 l 1
 639 188 l 1
 700 188 l 1
 700 972 l 1
 888 972 l 1
 888 621 l 1xd0
EndSplineSet
Validated: 1
EndChar

StartChar: uni042F
Encoding: 289 1071 121
Width: 1686
Flags: W
HStem: 0 21G<44 267 1193.47 1657> 0 21G<44 267 1193.47 1657> 191 225<267 864> 864 110<278 388>
VStem: 44 234<556 864> 44 223<0 191>
LayerCount: 2
Fore
SplineSet
44 556 m 1x38
 44 890 l 1
 44 936 l 1x34
 71 967 l 1
 104 974 l 1
 541 974 l 1
 768 570 l 1
 534 570 l 1
 388 864 l 1
 278 864 l 1
 278 556 l 1
 44 556 l 1x38
881 781 m 1
 1193 972 l 1
 1647 972 l 1
 881 556 l 1
 881 781 l 1
44 416 m 1
 906 416 l 1
 1657 0 l 1
 1232 0 l 1
 864 191 l 1
 267 191 l 1
 267 0 l 1
 44 0 l 1xb4
 44 416 l 1
EndSplineSet
Validated: 1
EndChar

StartChar: uni0416
Encoding: 290 1046 122
Width: 1545
Flags: W
HStem: 0 225<295 741 965 1489> 377 224<965 1289> 560 221<577 741> 751 224<965 1489>
VStem: 741 224<225 377>
LayerCount: 2
Fore
SplineSet
1489 975 m 1x98
 1489 751 l 1
 965 751 l 1
 965 601 l 1
 1289 601 l 1
 1289 377 l 1
 965 377 l 1xd8
 965 225 l 1
 1489 225 l 1
 1489 0 l 1
 86 0 l 1
 36 49 l 1
 36 317 l 1
 295 317 l 1
 295 225 l 1
 741 225 l 1
 741 560 l 1
 577 560 l 1
 429 409 l 1
 91 409 l 1
 463 781 l 1
 741 781 l 1xa8
 741 975 l 1
 1489 975 l 1x98
EndSplineSet
Validated: 1
EndChar

StartChar: uni0401
Encoding: 291 1025 123
Width: 1648
Flags: W
HStem: 755 217<622 1010>
LayerCount: 2
Fore
SplineSet
99 227 m 1
 163 0 l 1
 1471 0 l 1
 1532 227 l 1
 99 227 l 1
94 260 m 1
 30 445 l 1
 127 492 l 1
 210 552 l 1
 292 625 l 1
 361 700 l 1
 408 786 l 1
 443 873 l 1
 470 972 l 1
 1183 972 l 1
 1203 895 l 1
 1238 797 l 1
 1285 705 l 1
 1354 620 l 1
 1437 548 l 1
 1516 497 l 1
 1614 445 l 1
 1543 260 l 1
 1423 319 l 1
 1303 397 l 1
 1179 504 l 1
 1100 589 l 1
 1046 673 l 1
 1010 755 l 1
 622 755 l 1
 574 658 l 1
 524 591 l 1
 440 497 l 1
 330 405 l 1
 210 324 l 1
 94 260 l 1
EndSplineSet
Validated: 9
EndChar

StartChar: uni0423
Encoding: 292 1059 124
Width: 1421
Flags: W
HStem: 0 210<263 1160> 748 224<871 1160>
VStem: 39 224<210 972> 1160 224<210 748>
LayerCount: 2
Fore
SplineSet
1336 972 m 1
 1384 924 l 1
 1384 50 l 1
 1333 0 l 1
 39 0 l 1
 39 972 l 1
 263 972 l 1
 263 210 l 1
 1160 210 l 1
 1160 748 l 1
 871 748 l 1
 734 563 l 1
 445 563 l 1
 751 972 l 1
 1336 972 l 1
EndSplineSet
Validated: 1
EndChar

StartChar: uni042E
Encoding: 293 1070 125
Width: 1421
Flags: W
HStem: 0 210<263 1160> 748 224<871 1160>
VStem: 39 224<210 864> 1160 224<210 748>
LayerCount: 2
Fore
SplineSet
1336 972 m 1
 1384 924 l 1
 1384 50 l 1
 1333 0 l 1
 39 0 l 1
 39 890 l 1
 39 936 l 1
 66 967 l 1
 99 974 l 1
 450 974 l 1
 534 824 l 1
 403 650 l 1
 297 864 l 1
 263 864 l 1
 263 210 l 1
 1160 210 l 1
 1160 748 l 1
 871 748 l 1
 734 563 l 1
 445 563 l 1
 751 972 l 1
 1336 972 l 1
EndSplineSet
Validated: 1
EndChar

StartChar: uni0430
Encoding: 294 1072 126
Width: 1686
Flags: W
HStem: 0 21G<44 267 1193.47 1657> 0 21G<44 267 1193.47 1657> 191 225<267 864> 556 225<270 881> 952 20G<44 270 1160.33 1647> 952 20G<44 270 1160.33 1647>
VStem: 44 223<0 191 781 972>
LayerCount: 2
Fore
SplineSet
44 972 m 1x3a
 270 972 l 1
 270 781 l 1
 881 781 l 1
 1193 972 l 1
 1647 972 l 1
 881 556 l 1
 44 556 l 1
 44 972 l 1x3a
44 416 m 1
 906 416 l 1
 1657 0 l 1
 1232 0 l 1
 864 191 l 1
 267 191 l 1
 267 0 l 1
 44 0 l 1xb2
 44 416 l 1
EndSplineSet
Validated: 1
EndChar

StartChar: uni0431
Encoding: 295 1073 127
Width: 1566
Flags: W
HStem: -1 215<388 1178> 370 232<480 1113> 748 217<392 1180>
LayerCount: 2
Fore
SplineSet
309 965 m 1
 1259 965 l 1
 1538 650 l 1
 1538 599 l 1
 1292 599 l 1
 1180 748 l 1
 392 748 l 1
 275 599 l 1
 30 599 l 1
 30 650 l 1
 309 965 l 1
480 602 m 1
 1113 602 l 1
 1113 370 l 1
 480 370 l 1
 480 602 l 1
27 343 m 1
 273 343 l 1
 388 214 l 1
 1178 214 l 1
 1291 341 l 1
 1536 341 l 1
 1536 296 l 1
 1257 -1 l 1
 306 -1 l 1
 27 296 l 1
 27 343 l 1
EndSplineSet
Validated: 1
EndChar

StartChar: uni0432
Encoding: 296 1074 128
Width: 1261
Flags: W
HStem: 0 21G<538 725> 0 21G<538 725> 952 20G<36 372.77 890.307 1227> 952 20G<36 372.77 890.307 1227>
VStem: 538 187<0 468>
LayerCount: 2
Fore
SplineSet
353 972 m 1xa8
 611 711 l 1
 653 711 l 1
 910 972 l 1
 1227 972 l 1
 725 468 l 1
 725 0 l 1
 538 0 l 1
 538 468 l 1
 36 969 l 1
 353 972 l 1xa8
EndSplineSet
Validated: 1
EndChar

StartChar: uni0433
Encoding: 297 1075 129
Width: 1495
Flags: W
HStem: 0 225<249 810> 714 261<436 622> 773 202<622 1090>
VStem: 66 183<225 975>
LayerCount: 2
Fore
SplineSet
1444 975 m 1xb0
 1441 958 l 1
 918 0 l 1
 66 0 l 1
 66 975 l 1
 249 975 l 1
 249 225 l 1
 810 225 l 1
 1090 767 l 1
 1090 773 l 1
 622 773 l 1xb0
 622 714 l 1
 436 714 l 1
 436 975 l 1xd0
 1444 975 l 1xb0
EndSplineSet
Validated: 1
EndChar

StartChar: uni0434
Encoding: 298 1076 130
Width: 1240
Flags: W
HStem: 0 21G<102 410.962> 0 21G<102 410.962> 370 222<226 430> 744 221<165 753>
LayerCount: 2
Fore
SplineSet
1201 965 m 1xb0
 1198 948 l 1
 394 0 l 1
 102 0 l 1
 430 370 l 1
 74 370 l 1
 226 592 l 1
 623 592 l 1
 753 743 l 1
 22 744 l 1
 165 965 l 1
 1201 965 l 1xb0
EndSplineSet
Validated: 1
EndChar

StartChar: uni0435
Encoding: 299 1077 131
Width: 1510
Flags: W
HStem: 0 21G<512.899 871.047 1129 1331> 0 21G<512.899 871.047 1129 1331> 749 224<1331 1480> 864 110<278 388>
VStem: 1129 202<0 486.758>
LayerCount: 2
Fore
SplineSet
1480 973 m 1x28
 1480 749 l 1
 1331 749 l 1x28
 1331 0 l 1
 1129 0 l 1
 1129 484 l 1
 1128.86613363 486.757647137 l 1
 860 0 l 1
 524 0 l 1
 30 890 l 1
 30 936 l 1
 57 967 l 1
 90 974 l 1
 541 974 l 1
 768 570 l 1
 534 570 l 1
 388 864 l 1
 278 864 l 1
 670 156 l 1
 720 156 l 1
 1178 974 l 1x98
 1480 973 l 1x28
EndSplineSet
Validated: 1
EndChar

StartChar: uni0436
Encoding: 300 1078 132
Width: 1545
Flags: W
HStem: 0 225<295 591 815 1239> 377 224<815 1039> 751 224<815 1239>
VStem: 591 224<225 377>
LayerCount: 2
Fore
SplineSet
1489 975 m 1
 1489 751 l 1
 965 751 l 1
 965 601 l 1
 1289 601 l 1
 1289 377 l 1
 965 377 l 1
 965 225 l 1
 1489 225 l 1
 1489 0 l 1
 86 0 l 1
 36 49 l 1
 36 317 l 1
 295 317 l 1
 295 225 l 1
 741 225 l 1
 741 560 l 1
 577 560 l 1
 429 409 l 1
 91 409 l 1
 463 781 l 1
 741 781 l 1
 741 975 l 1
 1489 975 l 1
EndSplineSet
Validated: 1
EndChar

StartChar: uni0437
Encoding: 301 1079 133
Width: 1293
Flags: W
HStem: -1 226<295 1041> 560 221<577 1041> 948 20G<1041 1265> 948 20G<1041 1265>
VStem: 1041 224<225 560 781 968>
LayerCount: 2
Fore
SplineSet
1265 968 m 1xe8
 1265 -1 l 1
 86 -1 l 1
 36 49 l 1
 36 317 l 1
 295 317 l 1
 295 225 l 1
 1041 225 l 1
 1041 560 l 1
 577 560 l 1
 429 409 l 1
 91 409 l 1
 463 781 l 1
 1041 781 l 1
 1041 968 l 1
 1265 968 l 1xe8
EndSplineSet
Validated: 1
EndChar

StartChar: uni0438
Encoding: 302 1080 134
Width: 629
Flags: W
HStem: 0 21G<387 572> 0 21G<387 572> 955 20G<311.356 572>
VStem: 387 185<0 730>
LayerCount: 2
Fore
SplineSet
572 975 m 1xb0
 572 0 l 1
 387 0 l 1
 387 730 l 1
 190 534 l 1
 47 678 l 2
 45 683.333333333 47.6666666667 688.666666667 55 694 c 2
 331 975 l 1
 572 975 l 1xb0
EndSplineSet
Validated: 1
EndChar

StartChar: uni0439
Encoding: 303 1081 135
Width: 883
Flags: W
HStem: 0 21G<467 652> 0 21G<467 652>
VStem: 467 185<0 460>
LayerCount: 2
Fore
SplineSet
48 694 m 1x20
 137 574 l 1
 137 764 l 1
 748 764 l 1
 535 976 l 1
 48 976 l 1
 48 694 l 1x20
802 683 m 1
 802 0 l 1
 617 0 l 1xa0
 617 438 l 1
 420 242 l 1
 277 386 l 2
 274.405273438 388.594726562 277.072265625 393.927734375 285 402 c 2
 561 683 l 1
 802 683 l 1
EndSplineSet
Validated: 524297
EndChar

StartChar: uni043A
Encoding: 304 1082 136
Width: 1521
Flags: W
HStem: 0 224<63 1243> 748 223<63 1243>
VStem: 1243 221<224 748>
LayerCount: 2
Fore
SplineSet
1437 971 m 1
 1449.66666667 965.666666667 1458.66666667 956.333333333 1464 943 c 1
 1464 33 l 1
 1459.33333333 17 1448.66666667 6 1432 0 c 1
 63 0 l 1
 63 224 l 1
 1243 224 l 1
 1243 748 l 1
 63 748 l 1
 63 971 l 1
 1437 971 l 1
EndSplineSet
Validated: 1
EndChar

StartChar: uni043B
Encoding: 305 1083 137
Width: 1007
Flags: W
HStem: -1 21G<653.492 944> -1 21G<653.492 944> 956 20G<746 944>
VStem: 746 198<222 976>
LayerCount: 2
Fore
SplineSet
944 976 m 1xb0
 944 -1 l 1
 684 -1 l 1
 54 412 l 1
 171 595 l 1
 746 222 l 1
 746 976 l 1
 944 976 l 1xb0
EndSplineSet
Validated: 1
EndChar

StartChar: uni043C
Encoding: 306 1084 138
Width: 1000
Flags: W
HStem: 0 224<409 826> 711 261<686 894>
LayerCount: 2
Fore
SplineSet
894 972 m 1
 894 711 l 1
 686 709 l 1
 409 224 l 1
 961 224 l 1
 826 0 l 1
 31 0 l 1
 566 972 l 1
 894 972 l 1
EndSplineSet
Validated: 1
EndChar

StartChar: uni043D
Encoding: 307 1085 139
Width: 1582
Flags: W
HStem: 0 21G<211 486.573 1289.11 1552> 0 21G<211 486.573 1289.11 1552> 952 20G<173 376 740.54 1019.19> 952 20G<173 376 740.54 1019.19>
LayerCount: 2
Fore
SplineSet
318 188 m 1xa0
 342 190 l 1
 751 972 l 1
 1008 972 l 1
 1552 0 l 1
 1300 0 l 1
 882 768 l 1
 476 0 l 1
 226 0 l 1
 211 1 l 1
 186 37 l 1
 163 76 l 1
 132 130 l 1
 105 192 l 1
 79 257 l 1
 64 332 l 1
 48 417 l 1
 42 505 l 1
 48 593 l 1
 56 673 l 1
 72 751 l 1
 89 810 l 1
 116 864 l 1
 142 911 l 1
 173 950 l 1
 191 970 l 1
 376 970 l 1
 344 939 l 1
 318 901 l 1
 292 854 l 1
 272 808 l 1
 254 751 l 1
 238 676 l 1
 225 593 l 1
 220 510 l 1
 225 427 l 1
 241 339 l 1
 261 272 l 1
 282 231 l 1
 318 188 l 1xa0
EndSplineSet
Validated: 1
EndChar

StartChar: uni043E
Encoding: 308 1086 140
Width: 1388
Flags: W
HStem: 0 213<263 1134> 748 224<487 908>
LayerCount: 2
Fore
SplineSet
1036 972 m 1
 1367 199 l 1
 1235 0 l 1
 168 0 l 1
 31 202 l 1
 350 972 l 1
 1036 972 l 1
263 213 m 1
 1134 213 l 1
 908 748 l 1
 487 748 l 1
 263 213 l 1
EndSplineSet
Validated: 1
EndChar

StartChar: uni043F
Encoding: 309 1087 141
Width: 1022
Flags: W
HStem: 0 222<287.809 743> 732 234<371 593>
VStem: 35 223.75<278.381 574.227> 743 224<222 967>
LayerCount: 2
Fore
SplineSet
967 967 m 1
 967 0 l 1
 231 0 l 1
 108.333333333 89.3333333333 43 234 35 434 c 1
 51 648.666666667 130.333333333 826 273 966 c 1
 593 966 l 1
 593 732 l 1
 371 732 l 1
 371 784 l 1
 335 784 l 1
 284.333333333 725.333333333 259 608.666666667 259 434 c 1
 258.833333333 425.916666667 258.75 418.0625 258.75 410.4375 c 0
 258.75 296.0625 277.5 233.25 315 222 c 1
 743 222 l 1
 743 968 l 1
 967 967 l 1
EndSplineSet
Validated: 1
EndChar

StartChar: uni0440
Encoding: 310 1088 142
Width: 1302
Flags: W
HStem: 0 21G<176 475.79> 0 21G<176 475.79> 737 235<232 776>
LayerCount: 2
Fore
SplineSet
1275 972 m 1xa0
 459 0 l 1
 176 0 l 1
 776 720 l 1
 776 737 l 1
 56 737 l 1
 232 972 l 1
 1275 972 l 1xa0
EndSplineSet
Validated: 1
EndChar

StartChar: uni0441
Encoding: 311 1089 143
Width: 1479
Flags: W
HStem: 0 21G<722.569 786.128 1123.98 1429> 0 21G<722.569 786.128 1123.98 1429> 952 20G<171 501.946 1221 1429> 952 20G<171 501.946 1221 1429>
VStem: 1221 208<231 972>
LayerCount: 2
Fore
SplineSet
482 972 m 1xa8
 1221 231 l 1
 1221 972 l 1
 1429 972 l 1
 1429 0 l 1
 1144 0 l 1
 171 972 l 1
 482 972 l 1xa8
90 462 m 1
 846 188 l 1
 779 0 l 1
 20 269 l 1
 90 462 l 1
EndSplineSet
Validated: 1
EndChar

StartChar: uni0442
Encoding: 312 1090 144
Width: 1607
Flags: W
HStem: 0 185<639 700 888 952> 952 20G<700 888> 952 20G<700 888>
VStem: 700 188<188 972>
LayerCount: 2
Fore
SplineSet
888 972 m 1xd0
 888 185 l 1
 952 185 l 1
 1283 521 l 1
 1574 521 l 1
 1050 0 l 1
 541 0 l 1
 12 524 l 1
 305 524 l 1
 639 188 l 1
 700 188 l 1
 700 972 l 1
 888 972 l 1xd0
EndSplineSet
Validated: 1
EndChar

StartChar: uni0443
Encoding: 313 1091 145
Width: 1421
Flags: W
HStem: 0 210<263 1160> 748 224<871 1160>
VStem: 39 224<210 972> 1160 224<210 748>
LayerCount: 2
Fore
SplineSet
1336 972 m 1
 1384 924 l 1
 1384 50 l 1
 1333 0 l 1
 39 0 l 1
 39 972 l 1
 263 972 l 1
 263 210 l 1
 1160 210 l 1
 1160 748 l 1
 871 748 l 1
 734 563 l 1
 445 563 l 1
 751 972 l 1
 1336 972 l 1
EndSplineSet
Validated: 1
EndChar

StartChar: uni0444
Encoding: 314 1092 146
Width: 1516
Flags: W
HStem: 0 223<261 647 852 1476> 452 218<260 551.676> 947 20G<646.923 852> 947 20G<646.923 852>
VStem: 40 221<223 452> 647 205<223 474 734 967>
LayerCount: 2
Fore
SplineSet
852 967 m 1xec
 852 734 l 1
 977.333333333 754.666666667 1077.33333333 778.666666667 1152 806 c 0
 1226.66666667 833.333333333 1334.66666667 891.333333333 1476 980 c 1
 1476 780 l 1
 1364 705.333333333 1264.33333333 650.166666667 1177 614.5 c 0
 1089.66666667 578.833333333 981.333333333 547.666666667 852 521 c 1
 852 223 l 1
 1476 223 l 1
 1476 0 l 1
 40 0 l 1
 40 669 l 1
 302 670 l 1
 420.666666667 675.333333333 535.333333333 687.333333333 646 706 c 1
 647 967 l 1
 852 967 l 1xec
261 223 m 1
 647 223 l 1
 647 474 l 1
 557 462 463.333333333 454.666666667 366 452 c 1
 260 452 l 1
 261 223 l 1
EndSplineSet
Validated: 1
EndChar

StartChar: uni0445
Encoding: 315 1093 147
Width: 1161
Flags: W
HStem: -1 21G<36 309.904 902 1126> -1 21G<36 309.904 902 1126> 373 224<556 902> 948 20G<902 1126> 948 20G<902 1126>
VStem: 902 224<-1 373 597 968>
LayerCount: 2
Fore
SplineSet
1126 968 m 1xb4
 1126 -1 l 1
 902 -1 l 1
 902 373 l 1
 556 373 l 1
 296 -1 l 1
 36 -1 l 1
 450 597 l 1
 902 597 l 1
 902 968 l 1
 1126 968 l 1xb4
EndSplineSet
Validated: 1
EndChar

StartChar: uni0446
Encoding: 316 1094 148
Width: 1607
Flags: W
HStem: 0 185<639 700 888 952> 952 20G<700 888> 952 20G<700 888>
VStem: 700 188<188 341 621 972>
LayerCount: 2
Fore
SplineSet
888 621 m 1xd0
 890 621 l 1
 1221 962 l 1
 1512 962 l 1
 888 341 l 1
 888 185 l 1
 952 185 l 1
 1283 521 l 1
 1574 521 l 1
 1050 0 l 1
 541 0 l 1
 12 524 l 1
 305 524 l 1
 639 188 l 1
 700 188 l 1
 700 972 l 1
 888 972 l 1
 888 621 l 1xd0
EndSplineSet
Validated: 1
EndChar

StartChar: uni0447
Encoding: 317 1095 149
Width: 1557
Flags: W
HStem: -1 226<20 1190> 745 223<20 936>
LayerCount: 2
Fore
SplineSet
1064 968 m 1
 1531 -1 l 1
 20 -1 l 1
 20 225 l 1
 1190 225 l 1
 936 745 l 1
 20 745 l 1
 20 968 l 1
 1064 968 l 1
EndSplineSet
Validated: 1
EndChar

StartChar: uni0448
Encoding: 318 1096 150
Width: 1743
Flags: W
HStem: -1 299<25 249 360 547> -1 226<547 1117> 708 260<25 249 360 547> 773 195<547 1377>
VStem: 25 224<-1 298 708 968> 360 187<225 298 708 773>
LayerCount: 2
Fore
SplineSet
1701 968 m 1x1c
 1249 -1 l 1x5c
 360 -1 l 1
 360 298 l 1
 547 298 l 1x8c
 547 225 l 1
 1117 225 l 1
 1363 747 l 1
 1377 770 l 1
 1377 773 l 1
 547 773 l 1x5c
 547 708 l 1
 360 708 l 1
 360 968 l 1x2c
 1701 968 l 1x1c
249 968 m 1x2c
 249 708 l 1
 25 708 l 1
 25 968 l 1
 249 968 l 1x2c
25 298 m 1x8c
 249 298 l 1
 249 -1 l 1
 25 -1 l 1
 25 298 l 1x8c
EndSplineSet
Validated: 1
EndChar

StartChar: uni0449
Encoding: 319 1097 151
Width: 1743
Flags: W
HStem: -138 89<1414 1474> -1 299<25 249 360 547> -1 226<547 1117> 708 260<25 249 360 547> 773 195<547 1377>
VStem: 25 224<-1 298 708 968> 360 187<225 298 708 773> 1474 222<-49 160>
LayerCount: 2
Fore
SplineSet
1414 -138 m 1x87
 1294 -49 l 1
 1474 -49 l 1
 1478 160 l 5
 1696 652 l 5
 1696 -138 l 1
 1414 -138 l 1x87
1701 968 m 1x8f
 1249 -1 l 1xaf
 360 -1 l 1
 360 298 l 1
 547 298 l 1xc7
 547 225 l 1
 1117 225 l 1
 1363 747 l 1
 1377 770 l 1
 1377 773 l 1
 547 773 l 1xaf
 547 708 l 1
 360 708 l 1
 360 968 l 1x97
 1701 968 l 1x8f
249 968 m 1x97
 249 708 l 1
 25 708 l 1
 25 968 l 1
 249 968 l 1x97
25 298 m 1xc7
 249 298 l 1
 249 -1 l 1
 25 -1 l 1
 25 298 l 1xc7
EndSplineSet
Validated: 1
EndChar

StartChar: uni044A
Encoding: 320 1098 152
Width: 992
Flags: W
HStem: 956 20G<22 324.489 648 872>
VStem: 648 224<624 976>
LayerCount: 2
Fore
SplineSet
872 976 m 1
 872 473 l 1
 519 473 l 1
 22 976 l 1
 305 976 l 1
 648 624 l 1
 648 976 l 1
 872 976 l 1
EndSplineSet
Validated: 1
EndChar

StartChar: uni044B
Encoding: 321 1099 153
Width: 1428
Flags: W
HStem: 0 21G<512.899 871.047> 0 21G<512.899 871.047> 864 110<278 388>
LayerCount: 2
Fore
SplineSet
1398 974 m 1xa0
 860 0 l 1
 524 0 l 1
 30 890 l 1
 30 936 l 1
 57 967 l 1
 90 974 l 1
 541 974 l 1
 768 570 l 1
 534 570 l 1
 388 864 l 1
 278 864 l 1
 670 156 l 1
 720 156 l 1
 1178 974 l 1
 1398 974 l 1xa0
EndSplineSet
Validated: 1
EndChar

StartChar: uni044C
Encoding: 322 1100 154
Width: 600
Flags: W
HStem: 996 89<332 392>
VStem: 110 222<598 996>
LayerCount: 2
Fore
SplineSet
392 1085 m 1
 512 996 l 1
 332 996 l 1
 332 385 l 1
 110 598 l 1
 110 1085 l 1
 392 1085 l 1
EndSplineSet
Validated: 1
EndChar

StartChar: uni044D
Encoding: 323 1101 155
Width: 1510
Flags: W
HStem: 0 21G<476.401 754.506 1129 1331> 0 21G<476.401 754.506 1129 1331> 749 224<1101 1129 1331 1480>
VStem: 1129 202<0 749>
LayerCount: 2
Fore
SplineSet
1480 973 m 1xb0
 1480 749 l 1
 1331 749 l 1
 1331 0 l 1
 1129 0 l 1
 1129 749 l 1
 1101 749 l 1
 745 0 l 1
 486 0 l 1
 19 973 l 1
 270 973 l 1
 618 277 l 1
 955 973 l 1
 1480 973 l 1xb0
EndSplineSet
Validated: 1
EndChar

StartChar: uni044E
Encoding: 324 1102 156
Width: 1421
Flags: W
HStem: 0 210<263 1160> 748 224<871 1160>
VStem: 39 224<210 864> 1160 224<210 748>
LayerCount: 2
Fore
SplineSet
1336 972 m 1
 1384 924 l 1
 1384 50 l 1
 1333 0 l 1
 39 0 l 1
 39 890 l 1
 39 936 l 1
 66 967 l 1
 99 974 l 1
 450 974 l 1
 534 824 l 1
 403 650 l 1
 297 864 l 1
 263 864 l 1
 263 210 l 1
 1160 210 l 1
 1160 748 l 1
 871 748 l 1
 734 563 l 1
 445 563 l 1
 751 972 l 1
 1336 972 l 1
EndSplineSet
Validated: 1
EndChar

StartChar: uni044F
Encoding: 325 1103 157
Width: 1686
Flags: W
HStem: 0 21G<44 267 1193.47 1657> 0 21G<44 267 1193.47 1657> 191 225<267 864> 864 110<278 388>
VStem: 44 234<556 864> 44 223<0 191>
LayerCount: 2
Fore
SplineSet
44 556 m 1x38
 44 890 l 1
 44 936 l 1x34
 71 967 l 1
 104 974 l 1
 541 974 l 1
 768 570 l 1
 534 570 l 1
 388 864 l 1
 278 864 l 1
 278 556 l 1
 44 556 l 1x38
881 781 m 1
 1193 972 l 1
 1647 972 l 1
 881 556 l 1
 881 781 l 1
44 416 m 1
 906 416 l 1
 1657 0 l 1
 1232 0 l 1
 864 191 l 1
 267 191 l 1
 267 0 l 1
 44 0 l 1xb4
 44 416 l 1
EndSplineSet
Validated: 1
EndChar

StartChar: uni0451
Encoding: 326 1105 158
Width: 1648
Flags: W
HStem: 755 217<622 1010>
LayerCount: 2
Fore
SplineSet
99 227 m 1
 163 0 l 1
 1471 0 l 1
 1532 227 l 1
 99 227 l 1
94 260 m 1
 30 445 l 1
 127 492 l 1
 210 552 l 1
 292 625 l 1
 361 700 l 1
 408 786 l 1
 443 873 l 1
 470 972 l 1
 1183 972 l 1
 1203 895 l 1
 1238 797 l 1
 1285 705 l 1
 1354 620 l 1
 1437 548 l 1
 1516 497 l 1
 1614 445 l 1
 1543 260 l 1
 1423 319 l 1
 1303 397 l 1
 1179 504 l 1
 1100 589 l 1
 1046 673 l 1
 1010 755 l 1
 622 755 l 1
 574 658 l 1
 524 591 l 1
 440 497 l 1
 330 405 l 1
 210 324 l 1
 94 260 l 1
EndSplineSet
Validated: 9
EndChar
